<svg width="730" height="730" viewBox="0 0 730 730" fill="none" xmlns="http://www.w3.org/2000/svg">
<mask id="mask0_1293_739" style="mask-type:alpha" maskUnits="userSpaceOnUse" x="0" y="0" width="730" height="730">
<path d="M729.46 364.73C729.46 163.3 566.17 0 364.73 0C163.3 0 0 163.3 0 364.73C0 566.17 163.3 729.47 364.73 729.47C566.17 729.47 729.46 566.17 729.46 364.73Z" fill="#0054FA"/>
</mask>
<g mask="url(#mask0_1293_739)">
<g filter="url(#filter0_i_1293_739)">
<path d="M575.21 808.67C571.53 808.67 568.43 808.67 565.71 808.67C565.12 808.67 564.53 808.67 563.97 808.67C561.32 808.67 558.63 808.63 556.02 808.56C541.54 808.15 526.98 806.57 512.65 803.8C497.7 806.42 482.52 807.86 467.45 808.08C465.86 808.08 464.28 808.11 462.59 808.11C460.89 808.11 461.26 808.11 460.63 808.11H460.19C456.06 808.11 451.94 808.11 447.77 808.08H447.19C442.84 808.08 437.94 808.04 433.41 808.04C428.87 808.04 430.13 808.04 428.51 808.04L262.13 808.67V807.08C251.44 806.42 240.83 805.13 230.3 803.21C214.31 806.12 197.99 807.6 181.78 807.6H124.71C35.3297 807.6 -46.8603 766.74 -100.84 695.49L-101.32 694.87C-157.24 620.59 -173.08 523.41 -143.72 434.84L-123.72 374.75C-115.54 350.18 -105.07 326.2 -92.4705 303.39C-93.6905 292.71 -94.3203 281.91 -94.3203 271.19C-94.3203 253.25 -92.5804 235.24 -89.2004 217.63C-88.9704 210.41 -88.5004 203.19 -87.6804 196.08C-83.1504 154.56 -68.9004 114.14 -46.3804 78.96C-35.0004 49.52 -19.4205 22.3001 -0.000488281 -1.93994C57.8395 -74.5599 147.85 -117.92 240.83 -117.92C333.82 -117.92 279.78 -116.04 298.82 -112.36C314.26 -109.37 326.6 -105.8 351.03 -98.3198H351.06C354.27 -97.3298 356.19 -96.7399 357.36 -96.3999C389.09 -87.6399 419.3 -74.19 447.19 -56.47C468.37 -43.02 487.9 -27.22 505.36 -9.53003C531.26 2.80997 555.65 18.1301 578.01 36.1501C602.84 41.6402 627.16 49.9301 650.33 60.8301C683.6 76.4501 714.07 97.1901 740.89 122.39C767.6 147.48 790.04 176.44 807.65 208.45C817.48 226.32 825.74 245.07 832.26 264.34C843.16 279.23 852.52 294.74 860.81 311.57C870.2 330.58 875.66 347.05 878.12 354.45L879.19 357.4L880.63 362.01C880.89 362.74 881.4 364.33 882.55 367.64L882.66 367.94C891.24 392.92 897.65 412.37 902 435.65L902.07 435.98C913.05 495.04 907.67 556.01 886.52 612.3C886.38 612.67 886.19 613.23 886.01 613.78L885.35 615.58C884.46 618.05 883.69 620.15 883.06 621.81C864.27 672.8 831.45 717.15 788.08 750.16C743.58 784.06 690.67 804.03 635.04 807.89L631.36 808.15L620.56 808.59H602.55C601.07 808.59 599.49 808.59 597.79 808.59C594.63 808.59 591.24 808.59 587.81 808.59H587.29C583.17 808.59 579.04 808.59 575.17 808.59L575.21 808.67Z" fill="#0054FA"/>
</g>
<path d="M240.829 -115.36C264.079 -115.36 278.109 -115.24 286.369 -115.01C288.629 -114.95 290.429 -114.88 291.869 -114.8C291.869 -114.78 291.869 -114.77 291.859 -114.76C291.539 -113.2 292.469 -112.12 293.119 -111.62C293.739 -111.15 294.509 -110.83 295.269 -110.59C295.879 -110.4 296.599 -110.21 297.449 -110.03L298.339 -109.85C313.629 -106.89 325.849 -103.35 350.279 -95.8799L350.649 -95.76H350.679C352.879 -95.08 354.459 -94.59 355.609 -94.25L356.669 -93.9399H356.679C387.169 -85.5099 416.259 -72.73 443.209 -55.95L445.809 -54.3098C466.829 -40.9698 486.209 -25.28 503.539 -7.73999L503.849 -7.41992L504.259 -7.21997C529.979 5.03003 554.199 20.2501 576.409 38.1401L576.869 38.52L577.459 38.6501C601.329 43.9201 624.729 51.8101 647.079 62.1401L649.239 63.1501C681.749 78.4101 711.569 98.6001 737.889 123.09L739.139 124.26C765.239 148.77 787.229 177.01 804.579 208.2L805.409 209.69C815.169 227.42 823.359 246.04 829.829 265.16L829.959 265.54L830.189 265.85C840.669 280.15 849.709 295.03 857.739 311.14L858.509 312.7H858.519C867.829 331.55 873.239 347.88 875.699 355.26L875.719 355.33L876.769 358.21L878.189 362.77L878.199 362.81L878.219 362.85C878.479 363.61 878.959 365.08 880.129 368.48L880.139 368.51L880.149 368.54L880.249 368.81C888.829 393.77 895.179 413.05 899.479 436.12L899.489 436.16L899.499 436.21L899.559 436.48C910.449 495.07 905.109 555.56 884.129 611.41C883.959 611.84 883.759 612.43 883.599 612.92L882.939 614.7V614.71V614.72C882.059 617.18 881.289 619.26 880.669 620.91H880.659V620.92C862.329 670.66 830.519 714.04 788.539 746.59L786.529 748.13C743.109 781.2 691.629 800.89 637.449 805.15L634.859 805.34L631.209 805.6L620.529 806.04H571.039L571.069 806.11H563.969C561.999 806.11 560.009 806.09 558.039 806.05L556.089 806C541.749 805.6 527.329 804.03 513.139 801.29L512.679 801.2L512.209 801.28C498.309 803.71 484.219 805.12 470.209 805.46L467.449 805.52C466.639 805.52 465.829 805.53 465.029 805.54C464.219 805.55 463.419 805.56 462.579 805.56H460.189C456.059 805.56 451.949 805.56 447.799 805.52H447.189C445.019 805.52 442.709 805.51 440.369 805.5C438.039 805.49 435.679 805.48 433.409 805.48H428.499L264.689 806.1V804.68L262.289 804.53C251.699 803.87 241.189 802.6 230.749 800.7L230.299 800.62L229.839 800.7C213.999 803.58 197.829 805.04 181.779 805.04H124.709C36.8194 805.04 -44.0406 765.19 -97.5406 695.6L-98.8006 693.95L-98.8106 693.94L-99.2806 693.31C-154.691 619.72 -170.391 523.41 -141.291 435.65L-121.291 375.56C-113.161 351.14 -102.761 327.3 -90.2408 304.63L-89.8406 303.91L-89.9307 303.1C-91.1407 292.51 -91.7606 281.82 -91.7606 271.19C-91.7606 253.42 -90.0407 235.56 -86.6807 218.11L-86.6407 217.91V217.71C-86.4307 210.99 -86.0006 204.29 -85.2906 197.68L-85.1407 196.37V196.35C-80.6507 155.23 -66.5308 115.19 -44.2308 80.3401L-44.0906 80.1201L-44.0008 79.8801C-33.0608 51.6001 -18.2106 25.3802 0.199387 1.92017L1.99919 -0.349854C59.3592 -72.3499 148.619 -115.36 240.829 -115.36Z" stroke="url(#paint0_linear_1293_739)" stroke-width="5.11569" stroke-miterlimit="10"/>
<g filter="url(#filter1_i_1293_739)">
<path d="M575.21 775.51C571.56 775.51 568.46 775.51 565.7 775.51C565.109 775.51 564.52 775.51 563.97 775.51C561.65 775.51 559.29 775.51 556.97 775.4C542.2 775 527.419 773.16 512.94 770.02C497.76 773.05 482.33 774.7 466.97 774.92C465.53 774.92 464.089 774.92 462.579 774.92C461.069 774.92 461.369 774.92 460.779 774.92H460.22C456.13 774.92 452.009 774.92 447.879 774.89H447.549C443.089 774.89 438.039 774.85 433.399 774.85C428.759 774.85 430.049 774.85 428.349 774.85L295.249 775.33V774.37H282.349C281.249 774.37 280.139 774.37 279.029 774.37C262.639 774.37 246.25 772.68 230.22 769.36C214.27 772.68 197.98 774.33 181.7 774.33H124.629C45.7495 774.33 -26.8607 738.27 -74.5007 675.38L-74.9006 674.83C-124.241 609.32 -138.2 523.48 -112.26 445.23L-92.2604 385.18C-83.6004 359.1 -72.1005 333.79 -58.1005 309.99C-60.1305 297.17 -61.1606 284.13 -61.1606 271.12C-61.1606 254.36 -59.4705 237.6 -56.1205 221.2C-55.9705 213.98 -55.5307 206.73 -54.7507 199.62C-50.6307 161.96 -37.4706 125.53 -16.6606 93.9902C-6.42058 66.4702 7.91951 41.1604 25.9295 18.6904C77.5095 -46.0796 157.829 -84.7598 240.829 -84.7598C323.829 -84.7598 275.529 -83.0996 292.519 -79.8196C306.479 -77.1296 317.569 -73.8896 341.329 -66.6296H341.409C345.019 -65.4896 347.039 -64.8996 348.149 -64.5696C376.849 -56.6496 404.189 -44.5298 429.389 -28.4998C450.129 -15.3098 469.069 0.270409 485.749 17.9204C513.719 30.6604 539.73 47.1304 563.23 66.9104C588.36 71.8104 612.86 79.8103 636.22 90.7903C666.32 104.93 693.909 123.69 718.19 146.53C742.359 169.22 762.689 195.45 778.609 224.41C788.339 242.09 796.33 260.7 802.48 279.82C813.57 294.37 822.929 309.62 831.069 326.2C839.509 343.26 844.369 357.96 846.769 365.25L847.759 367.98L849.089 372.25C849.269 372.81 849.789 374.35 851.19 378.41L851.299 378.7C859.659 403.09 865.45 420.62 869.43 441.77V442.07C879.37 495.19 874.51 550.08 855.46 600.78C855.32 601.18 855.089 601.81 854.839 602.47L854.169 604.24C853.289 606.67 852.549 608.73 851.93 610.32C835.31 655.38 806.28 694.61 767.96 723.79C728.62 753.74 681.86 771.39 632.72 774.81L629.509 775.03L619.859 775.44H602.69C601.18 775.44 599.519 775.44 597.789 775.44C594.589 775.44 591.16 775.44 587.7 775.44H587.139C583.049 775.44 578.959 775.44 575.099 775.44L575.21 775.51Z" fill="#0054FA"/>
</g>
<path d="M240.83 -82.2002C261.58 -82.2002 274.09 -82.1001 281.46 -81.8901C283.29 -81.8401 284.79 -81.7802 286 -81.7202C285.85 -80.3502 286.69 -79.4002 287.27 -78.9502C287.86 -78.5002 288.59 -78.2002 289.27 -77.9802C289.82 -77.8102 290.47 -77.6402 291.24 -77.4702L292.03 -77.3101H292.04C305.85 -74.6501 316.81 -71.4502 340.59 -64.1902L340.95 -64.0801H341.02C344.41 -63.0001 346.36 -62.4401 347.41 -62.1201L347.47 -62.1101C375.04 -54.5001 401.33 -42.9801 425.66 -27.8201L428.01 -26.3501V-26.3401C448.58 -13.2701 467.35 2.17992 483.9 19.6699L484.24 20.0398L484.69 20.2397C512.44 32.8897 538.26 49.2399 561.59 68.8699L562.09 69.2998L562.74 69.4299C586.88 74.1299 610.44 81.7198 632.95 92.0898L635.13 93.0999C664.52 106.92 691.5 125.15 715.31 147.33L716.44 148.39C740.04 170.55 759.95 196.11 775.63 224.3L776.37 225.64C786.02 243.18 793.95 261.64 800.05 280.6L800.18 281.02L800.45 281.37C811.09 295.33 820.12 309.95 828.02 325.79L828.78 327.33V327.34C837.13 344.22 841.95 358.78 844.34 366.05L844.35 366.09L844.37 366.13L845.34 368.79L846.65 373.01L846.66 373.06C846.85 373.62 847.37 375.18 848.77 379.24L848.78 379.27L848.79 379.3L848.89 379.57C857.22 403.85 862.93 421.18 866.87 442.02V442.3L866.91 442.54C876.77 495.2 871.95 549.62 853.07 599.88L853.06 599.9C852.9 600.34 852.7 600.92 852.45 601.54V601.56L852.44 601.57L851.78 603.34L851.77 603.35V603.37C850.87 605.83 850.16 607.84 849.55 609.38L849.54 609.41L849.53 609.43C833.34 653.34 805.24 691.65 768.18 720.39L766.41 721.75C728.07 750.94 682.63 768.32 634.82 772.09L632.54 772.26L629.37 772.48L619.8 772.88H566.65L566.76 772.96H563.97C561.64 772.96 559.34 772.96 557.09 772.85H557.07H557.04L555.67 772.8C541.52 772.33 527.37 770.53 513.48 767.52L512.97 767.41L512.44 767.52C497.41 770.51 482.13 772.15 466.93 772.37H460.22C456.13 772.37 452.02 772.37 447.9 772.33H447.55C445.33 772.33 442.96 772.32 440.55 772.31C438.16 772.3 435.73 772.29 433.4 772.29H428.35L297.8 772.76V771.81H279.04C262.82 771.81 246.59 770.14 230.74 766.86L230.22 766.75L229.7 766.86C213.92 770.14 197.81 771.78 181.7 771.78H124.63C46.5599 771.78 -25.2902 736.09 -72.4402 673.86L-72.8401 673.31L-72.8501 673.3L-72.8601 673.29L-74.0002 671.77C-121.9 607.13 -135.31 522.89 -109.83 446.04H-109.84L-89.8301 385.99C-81.2301 360.08 -69.8101 334.93 -55.9001 311.29L-55.4402 310.5L-55.5801 309.59C-57.5801 296.9 -58.6001 283.99 -58.6001 271.12C-58.6001 254.53 -56.9301 237.94 -53.6101 221.72L-53.56 221.49V221.26C-53.41 214.1 -52.9702 206.92 -52.2102 199.89C-48.1302 162.65 -35.11 126.6 -14.52 95.3999L-14.3601 95.1599L-14.26 94.8899C-4.42999 68.4699 9.19979 44.1199 26.2698 22.3899L27.9299 20.2898V20.2798C79.0199 -43.8702 158.6 -82.2002 240.83 -82.2002Z" stroke="url(#paint1_linear_1293_739)" stroke-width="5.11569" stroke-miterlimit="10"/>
<g filter="url(#filter2_i_1293_739)">
<path d="M575.21 742.36C571.56 742.36 568.47 742.36 565.82 742.36H565.63C565.08 742.36 564.53 742.36 564.01 742.36C562.02 742.36 560 742.36 558.01 742.28C542.94 741.84 527.94 739.78 513.32 736.06C497.92 739.63 482.19 741.54 466.49 741.77C465.24 741.77 463.99 741.77 462.66 741.77C461.33 741.77 461.52 741.77 460.96 741.77H460.37C456.29 741.77 452.16 741.77 448.03 741.73H447.74C443.24 741.73 438.16 741.69 433.44 741.69C428.73 741.69 430.02 741.69 428.29 741.69L328.44 741.25H282.17C281.14 741.25 280.11 741.25 279.11 741.25C262.64 741.25 246.29 739.3 230.3 735.43C214.42 739.3 198.13 741.25 181.78 741.25H124.71C56.2899 741.25 -6.67003 709.97 -48.01 655.41L-48.3401 654.97C-91.1801 598.09 -103.31 523.59 -80.76 455.7L-60.7503 395.68C-52.7603 371.66 -42.1502 348.34 -29.2202 326.42C-27.2602 323.11 -25.2402 319.79 -23.1402 316.47C-26.3402 301.63 -27.9602 286.45 -27.9602 271.16C-27.9602 255.61 -26.2702 240.07 -22.9502 224.92C-22.9502 217.67 -22.5103 210.41 -21.7403 203.26C-18.0503 169.48 -6.01012 137.06 13.1499 109.17C22.2499 83.5704 35.2598 60.1304 51.8398 39.4304C97.1898 -17.5596 167.81 -51.5996 240.83 -51.5996C313.85 -51.5996 337.95 -32.9997 338.98 -32.6997C364.62 -25.6697 389.05 -14.8398 411.6 -0.509766C431.9 12.3902 450.21 27.8304 466.05 45.4404C466.67 45.6904 467.26 45.9502 467.82 46.2102C497.33 59.1402 524.41 76.5302 548.39 97.9702C573.77 102.1 598.53 109.76 622.11 120.81C649.04 133.49 673.73 150.25 695.46 170.69C717.09 191.03 735.29 214.46 749.55 240.4C759.16 257.9 766.9 276.35 772.57 295.36C783.88 309.58 793.31 324.51 801.31 340.83C808.86 356.11 813.25 369.53 815.38 375.97V376.05L816.34 378.59L817.56 382.46C817.67 382.82 818.15 384.22 819.84 389.16L819.95 389.46C827.87 412.48 833.29 428.95 836.86 447.85V448.07C845.7 495.3 841.36 544.08 824.41 589.13C824.26 589.58 823.97 590.31 823.71 591.05L823.08 592.82C822.2 595.21 821.5 597.2 820.91 598.75C806.5 637.87 781.27 671.99 747.96 697.34C713.77 723.35 673.17 738.71 630.51 741.69L627.75 741.88L619.27 742.24H602.95C601.37 742.24 599.71 742.24 597.91 742.24C594.7 742.24 591.24 742.24 587.74 742.24H587.22C583.17 742.24 579.12 742.24 575.25 742.24L575.21 742.36Z" fill="#0054FA"/>
</g>
<path d="M240.83 -49.0498C277.13 -49.0498 301.15 -44.4198 316.15 -39.8198C323.65 -37.5198 328.91 -35.22 332.33 -33.5C334.04 -32.64 335.29 -31.9199 336.15 -31.3999C336.59 -31.1399 336.91 -30.95 337.18 -30.78C337.31 -30.7 337.44 -30.6198 337.56 -30.5498C337.59 -30.5398 337.77 -30.4298 338.02 -30.3398L338.28 -30.25L338.29 -30.24H338.3C362.91 -23.49 386.38 -13.2099 408.12 0.330078L410.22 1.65015C430.33 14.4301 448.46 29.7101 464.15 47.1501L464.54 47.5801L465.08 47.8C465.67 48.04 466.22 48.29 466.74 48.53L466.76 48.54L466.79 48.55C496.05 61.37 522.9 78.6201 546.69 99.8801L547.24 100.38L547.98 100.49C573.13 104.58 597.66 112.17 621.02 123.13C646.88 135.29 670.64 151.26 691.68 170.67L693.71 172.56C715.14 192.71 733.18 215.93 747.3 241.63C756.83 258.97 764.5 277.26 770.12 296.1L770.26 296.57L770.57 296.96C781.42 310.59 790.51 324.87 798.27 340.44L799.01 341.95L799.02 341.96C806.34 356.78 810.65 369.81 812.83 376.39V376.51L812.99 376.95L813.92 379.42L815.12 383.22C815.26 383.69 815.78 385.22 817.42 389.99L817.43 390.03L817.45 390.06L817.53 390.29C825.42 413.22 830.77 429.49 834.3 448.09V448.31L834.35 448.54C843.1 495.31 838.8 543.61 822.02 588.23L822 588.28L821.98 588.32C821.93 588.49 821.84 588.73 821.71 589.08C821.58 589.41 821.44 589.8 821.3 590.2L820.68 591.93C819.78 594.39 819.11 596.3 818.52 597.84L818.51 597.85V597.87C804.49 635.93 780.11 669.19 747.95 694.12L746.41 695.3C713.15 720.61 673.75 735.72 632.31 738.99L630.33 739.14L627.59 739.32L619.21 739.69H573.4L573.37 739.8H564.01C562.01 739.8 560.03 739.8 558.1 739.73H558.08C543.2 739.29 528.39 737.25 513.95 733.58L513.34 733.42L512.74 733.56C497.53 737.09 481.99 738.99 466.49 739.21H460.37C456.28 739.21 452.17 739.21 448.06 739.17H447.74C445.5 739.17 443.11 739.16 440.68 739.15C438.26 739.14 435.81 739.13 433.44 739.13H428.3L328.46 738.69H279.11C262.85 738.69 246.69 736.76 230.9 732.94L230.3 732.8L229.69 732.94C214.01 736.76 197.93 738.69 181.78 738.69H124.71C57.62 738.69 -4.14001 708.27 -45.01 655.13L-45.9702 653.87L-46.29 653.43L-47.28 652.11C-88.82 596.07 -100.44 523.08 -78.3301 456.5L-58.3301 396.49C-50.6401 373.39 -40.5102 350.93 -28.2102 329.77L-27.01 327.72C-25.07 324.43 -23.0602 321.14 -20.9802 317.84L-20.4202 316.96L-20.6401 315.93C-23.8001 301.27 -25.4102 286.27 -25.4102 271.16C-25.4102 255.8 -23.7302 240.43 -20.4502 225.47L-20.4001 225.2V224.92C-20.4001 217.77 -19.9602 210.61 -19.1902 203.54C-15.5602 170.18 -3.66023 138.16 15.2598 110.62L15.45 110.34L15.5598 110.03C24.2898 85.48 36.6398 62.96 52.3098 42.96L53.8298 41.03L53.8398 41.02C98.6998 -15.36 168.59 -49.0498 240.83 -49.0498Z" stroke="url(#paint2_linear_1293_739)" stroke-width="5.11569" stroke-miterlimit="10"/>
<g filter="url(#filter3_i_1293_739)">
<path d="M575.209 709.2C571.569 709.2 568.509 709.2 565.889 709.2H565.489C564.969 709.2 564.459 709.2 563.979 709.2C562.279 709.2 560.589 709.2 558.929 709.12C543.569 708.68 528.389 706.21 513.649 701.72C498.029 706.07 481.999 708.39 465.899 708.61C464.839 708.61 463.769 708.61 462.589 708.61C461.409 708.61 461.449 708.61 460.889 708.61H460.419C456.329 708.61 452.199 708.61 448.069 708.57H447.819C443.279 708.57 438.159 708.53 433.369 708.53C428.579 708.53 429.839 708.53 428.109 708.53L361.529 707.21C361.159 707.21 360.789 707.28 360.459 707.32L358.329 707.5L356.189 707.65C352.029 707.95 347.349 708.09 342.299 708.09C337.249 708.09 340.859 708.09 340.199 708.09H281.879C280.959 708.09 279.999 708.09 279.079 708.09C262.499 708.09 246.139 705.74 230.259 701.09C214.499 705.74 198.209 708.06 181.739 708.06H124.679C66.7193 708.06 13.4093 681.57 -21.5907 635.37L-21.8808 635C-58.1708 586.81 -68.4107 523.7 -49.3307 466.12L-29.3607 406.14C-22.1007 384.3 -12.4909 363.15 -0.730862 343.26C3.42914 336.22 7.84915 329.33 12.5292 322.59C7.62915 305.9 5.11924 288.66 5.11924 271.16C5.11924 256.79 6.81929 242.5 10.1693 228.61C10.0593 221.35 10.3893 214.06 11.1693 206.87C14.4393 176.99 25.3893 148.63 42.9193 124.42C50.8393 100.66 62.5193 79.0699 77.6993 60.1299C116.829 10.9499 177.759 -18.4102 240.799 -18.4102C303.839 -18.4102 317.169 -6.70005 329.809 -0.800049C342.449 5.08995 416.209 37.6598 446.119 73.0698C449.359 74.3898 452.089 75.5298 454.449 76.5698C482.739 88.9398 508.529 105.96 531.109 127.11L531.409 127.37C532.109 128.03 532.769 128.66 533.469 129.32C585.089 135.55 634.159 158.57 672.729 194.86C691.819 212.8 707.919 233.51 720.479 256.39C730.019 273.74 737.429 292.08 742.509 311.06C754.159 324.87 763.659 339.43 771.539 355.49C778.069 368.68 781.969 380.61 783.889 386.36L784.069 386.91L784.919 389.23L785.989 392.62C786.209 393.36 787.059 395.83 788.489 399.99L788.599 400.29C796.009 421.88 801.129 437.28 804.259 454V454.22C811.999 495.52 808.199 538.18 793.319 577.6C793.099 578.19 792.729 579.26 792.359 580.25L791.919 581.51C791.069 583.83 790.369 585.74 789.819 587.25C777.589 620.49 756.179 649.44 727.889 670.99C698.889 693.1 664.409 706.1 628.189 708.65L625.909 708.79L618.579 709.09H603.099C601.479 709.09 599.749 709.09 597.909 709.09C594.669 709.09 591.169 709.09 587.669 709.09H587.109C583.099 709.09 579.049 709.09 575.249 709.09L575.209 709.2Z" fill="#0054FA"/>
</g>
<path d="M240.799 -15.8496C272.169 -15.8496 291.009 -12.9396 303.499 -9.35962C316.039 -5.75962 322.09 -1.57974 328.73 1.52026C335.08 4.48026 356.58 14.0503 380.24 27.3003C403.97 40.5903 429.53 57.3902 444.17 74.7202L444.569 75.2004L445.15 75.4304C447.58 76.4204 449.699 77.3104 451.599 78.1204L453.42 78.9104C481.45 91.1704 506.989 108.03 529.369 128.98L529.43 129.04L529.69 129.26C530.02 129.58 530.35 129.89 530.68 130.2C531.02 130.53 531.36 130.85 531.71 131.18L532.329 131.76L533.169 131.86C583.429 137.92 631.28 160.1 669.19 195.05L670.98 196.73C689.28 213.93 704.809 233.7 717.059 255.5L718.24 257.62C727.68 274.79 735.009 292.95 740.039 311.72L740.19 312.27L740.559 312.71C752.069 326.36 761.459 340.74 769.249 356.61L771.539 355.49L769.249 356.62C774.879 368.01 778.539 378.46 780.649 384.74L781.46 387.17L781.639 387.72L781.669 387.79L782.49 390.05L783.549 393.39C783.799 394.23 784.669 396.76 786.069 400.83L786.079 400.86L786.099 400.89L786.2 401.15C793.57 422.64 798.61 437.82 801.7 454.24V454.46L801.749 454.69C809.279 494.89 805.759 536.4 791.609 574.87L790.93 576.7H790.919C790.749 577.18 790.25 578.58 789.96 579.37L789.95 579.4L789.519 580.63L787.419 586.38C775.539 618.63 754.899 646.81 727.639 667.96L726.339 668.96C697.739 690.76 663.729 703.59 628.019 706.09L625.799 706.24L618.519 706.53H573.409L573.369 706.64H563.98C562.27 706.64 560.639 706.64 559.039 706.57H559.019H558.999C543.869 706.13 528.909 703.7 514.399 699.27L513.68 699.06L512.97 699.26C497.55 703.54 481.749 705.83 465.869 706.05H460.409C456.319 706.05 452.209 706.05 448.099 706.01H447.819C445.559 706.01 443.15 706 440.7 706C438.26 705.99 435.769 705.98 433.369 705.98H428.109L361.579 704.65H361.559H361.529C361.009 704.65 360.27 704.76 360.19 704.77L358.15 704.95L356.009 705.1C351.919 705.39 347.299 705.53 342.299 705.53H279.079C262.749 705.53 246.63 703.21 230.98 698.64L230.259 698.43L229.539 698.64C214.009 703.21 197.97 705.5 181.74 705.5H124.68C67.5195 705.5 14.9695 679.38 -19.5505 633.82L-19.5705 633.8L-19.5905 633.77L-19.8505 633.44C-55.6205 585.93 -65.7206 523.71 -46.9006 466.93L-26.9306 406.95C-19.7306 385.28 -10.1904 364.3 1.46957 344.56C5.59957 337.57 9.98948 330.74 14.6295 324.05L15.3294 323.04L14.9796 321.87C10.1496 305.41 7.67953 288.41 7.67953 271.16C7.67953 256.99 9.34951 242.9 12.6595 229.21L12.7296 228.89V228.57C12.6196 221.42 12.9496 214.23 13.7096 207.15C16.9396 177.71 27.7194 149.77 44.9994 125.92L45.2296 125.6L45.3494 125.23C52.9294 102.48 63.9994 81.7602 78.2994 63.4902L79.6996 61.7302C118.34 13.1602 178.539 -15.8496 240.799 -15.8496Z" stroke="url(#paint3_linear_1293_739)" stroke-width="5.11569" stroke-miterlimit="10"/>
<g filter="url(#filter4_i_1293_739)">
<path d="M575.21 676.04C571.63 676.04 568.61 676.04 566.03 676.04H565.37C564.89 676.04 564.45 676.04 564.01 676.04C562.64 676.04 561.24 676.04 559.88 675.96C544.3 675.52 528.75 672.43 514.16 666.86C498.47 672.28 481.85 675.23 465.42 675.45C464.61 675.45 463.72 675.45 462.62 675.45C461.51 675.45 461.59 675.45 461.07 675.45H460.56C456.47 675.45 452.34 675.45 448.21 675.41H447.99C443.42 675.41 438.27 675.38 433.44 675.38C428.61 675.38 429.83 675.38 428.06 675.38L394.79 674.05C389.23 673.28 383.74 672.13 378.29 670.7C371.44 672.43 364.47 673.61 357.44 674.27L355.74 674.42L354.05 674.53C350.62 674.75 346.68 674.9 342.4 674.9C338.13 674.9 341.08 674.9 340.49 674.9H281.69C280.84 674.9 279.99 674.9 279.15 674.9C262.49 674.9 245.88 671.91 230.33 666.16C214.86 671.91 198.35 674.9 181.81 674.9H124.74C77.25 674.9 33.5999 653.2 4.89988 615.32L4.67991 615.03C-25.0601 575.54 -33.4601 523.77 -17.8001 476.54L2.1699 416.6C8.6899 396.97 17.3499 377.96 27.8899 360.09C34.4399 349 41.7399 338.32 49.6999 328.19C42.1799 309.95 38.3899 290.76 38.3899 271.16C38.3899 257.93 40.1198 244.89 43.5398 232.25C43.2098 224.99 43.4299 217.7 44.2099 210.48C47.0399 184.51 56.9199 160.26 72.8699 139.86C79.5398 117.86 89.8899 98.0001 103.67 80.8401C136.53 39.4601 188 18.91 240.83 14.74C293.66 10.58 319.97 30.8801 320.74 31.1001C362.23 42.3001 399.32 66.7601 425.3 100.03C425.45 100.21 425.59 100.4 425.74 100.62C433.15 103.57 437.64 105.45 441.1 106.96C465.93 117.82 488.59 132.74 508.41 151.35L508.63 151.57C511.51 154.26 514.35 157.1 517.11 159.79C517.11 159.79 518.18 160.82 518.62 161.26C567.25 164.54 613.71 184.95 650 219.03C666.58 234.61 680.5 252.55 691.41 272.37C700.84 289.54 707.84 307.74 712.22 326.6C713.66 328.33 714.99 329.88 715.65 330.65C726.22 342.92 734.77 355.85 741.77 370.15C747.26 381.2 750.54 391.26 752.34 396.71C752.34 396.71 752.64 397.56 752.68 397.74L753.45 399.88L754.33 402.64C754.7 403.78 756.4 408.76 757.13 410.93L757.21 411.08C764.17 431.3 768.92 445.63 771.65 460.11V460.3C778.24 495.63 775 532.17 762.25 565.96C762.03 566.58 761.52 567.98 761.08 569.2L760.71 570.19C759.86 572.48 759.2 574.36 758.64 575.83C748.59 603.13 730.98 626.97 707.73 644.69C683.89 662.85 655.56 673.53 625.83 675.63L623.99 675.74L617.8 676H603.17C601.51 676 599.71 676 597.83 676C594.55 676 591.05 676 587.48 676H586.92C582.94 676 578.93 676 575.13 676L575.21 676.04Z" fill="#0054FA"/>
</g>
<path d="M241.03 17.29C267.08 15.24 286.51 19.2201 299.47 23.7001C305.96 25.9301 310.84 28.3 314.13 30.11C315.77 31.01 317.02 31.78 317.88 32.32C318.32 32.6 318.65 32.8199 318.91 32.9899C319.03 33.0599 319.16 33.1499 319.27 33.2099C319.32 33.2399 319.4 33.29 319.48 33.33C319.51 33.35 319.64 33.4199 319.83 33.4899L320.04 33.56L320.07 33.57C361.03 44.63 397.66 68.78 423.28 101.6L423.29 101.62L423.3 101.63C423.45 101.82 423.53 101.92 423.61 102.04L424.05 102.7L424.79 103C432.18 105.94 436.65 107.8 440.08 109.3C464.64 120.05 487.04 134.8 506.65 153.2L506.86 153.41L506.89 153.44C508.31 154.77 509.72 156.14 511.12 157.51L515.32 161.62L515.33 161.63C515.34 161.63 515.34 161.63 515.34 161.64C515.35 161.65 515.36 161.66 515.38 161.67C515.41 161.7 515.45 161.74 515.5 161.79C515.61 161.89 515.76 162.04 515.92 162.19C516.24 162.51 516.6 162.86 516.81 163.07L517.49 163.75L518.45 163.81C565.73 167 610.94 186.58 646.56 219.32L648.25 220.89C664.12 235.81 677.53 252.91 688.15 271.77L689.17 273.61C698.49 290.57 705.4 308.55 709.73 327.18L709.87 327.77L710.25 328.24C710.98 329.11 711.68 329.94 712.28 330.64L713.71 332.32C724.14 344.43 732.57 357.18 739.47 371.27L739.48 371.28V371.29C744.88 382.16 748.11 392.06 749.91 397.51L749.92 397.53L749.93 397.55C749.93 397.55 749.93 397.55 749.93 397.56C749.93 397.56 749.93 397.57 749.94 397.58C749.95 397.6 749.96 397.64 749.97 397.67C750 397.75 750.03 397.86 750.07 397.97C750.11 398.08 750.14 398.18 750.17 398.26C750.17 398.29 750.18 398.31 750.18 398.32L750.2 398.43L750.27 398.61L751.02 400.7L751.9 403.42V403.43C752.27 404.59 753.98 409.6 754.71 411.75L754.77 411.92L754.84 412.07C761.75 432.13 766.4 446.21 769.09 460.36V460.53L769.13 460.77C775.64 495.64 772.44 531.71 759.86 565.05L759.85 565.08L759.84 565.11L758.67 568.33L758.31 569.3C757.42 571.69 756.82 573.42 756.25 574.93L756.24 574.95C746.51 601.37 729.58 624.49 707.24 641.83L706.18 642.65C682.74 660.51 654.89 671.01 625.67 673.08L623.83 673.19L617.76 673.44H564.3L564.38 673.48H564.01C562.63 673.48 561.3 673.48 560.02 673.41H559.99H559.95L558.52 673.36C543.7 672.78 528.95 669.76 515.07 664.47L514.2 664.14L513.33 664.45C497.89 669.77 481.56 672.67 465.42 672.89H460.56C456.46 672.89 452.35 672.89 448.24 672.85H447.99C445.71 672.85 443.29 672.85 440.82 672.84C438.36 672.83 435.86 672.82 433.44 672.82H428.11L395.02 671.5C389.62 670.74 384.27 669.63 378.94 668.22L378.3 668.05L377.66 668.22C371.36 669.81 364.96 670.93 358.49 671.6L357.21 671.72L355.54 671.87L353.88 671.98C350.51 672.19 346.62 672.34 342.4 672.34H279.15C262.8 672.34 246.48 669.41 231.22 663.77L230.33 663.44L229.44 663.77C214.25 669.41 198.05 672.34 181.81 672.34H124.74C78.4202 672.34 35.8201 651.35 7.60009 614.65L6.93016 613.78L6.7202 613.5V613.49L6.04003 612.58C-22.63 573.88 -30.6499 523.43 -15.3699 477.35L4.60009 417.41C11.0601 397.95 19.6401 379.1 30.0901 361.39C36.5901 350.4 43.8202 339.81 51.7102 329.77L52.6301 328.59L52.0601 327.21C44.6701 309.28 40.9402 290.42 40.9402 271.16C40.9402 258.15 42.65 245.34 46.01 232.92L46.1201 232.54L46.1001 232.14C45.7701 225.01 45.99 217.84 46.75 210.75C49.53 185.25 59.2301 161.46 74.8801 141.43L75.1802 141.05L75.3201 140.6C81.6901 119.58 91.4701 100.56 104.4 84.0299L105.66 82.4401L105.67 82.4301C137.97 41.7701 188.68 21.42 241.03 17.29Z" stroke="url(#paint4_linear_1293_739)" stroke-width="5.11569" stroke-miterlimit="10"/>
<g filter="url(#filter5_i_1293_739)">
<path d="M575.21 642.88C571.68 642.88 568.73 642.88 566.15 642.88H565.19C564.79 642.88 564.379 642.88 564.009 642.88C562.939 642.88 561.91 642.88 560.88 642.85C544.93 642.41 529.01 638.28 514.87 630.91C499.28 638.1 482.15 642.07 464.95 642.3C464.28 642.3 463.55 642.3 462.66 642.3C461.78 642.3 461.63 642.3 461.15 642.3H460.71C456.58 642.3 452.46 642.3 448.329 642.26H448.18C443.58 642.26 438.38 642.22 433.48 642.22C428.58 642.22 429.8 642.22 427.96 642.22C425.6 642.22 414.25 642.26 414.14 642.26C402.02 642.26 389.939 640.16 378.549 636.07C370.739 638.76 362.64 640.49 354.35 641.26L353.09 641.37L351.799 641.45C349.079 641.63 345.91 641.74 342.41 641.74C338.91 641.74 341.23 641.74 340.68 641.74H281.36C280.63 641.74 279.89 641.74 279.15 641.74C261.98 641.74 245.289 637.65 230.299 630.03C215.419 637.65 198.799 641.74 181.82 641.74H124.749C87.7194 641.74 53.6795 624.83 31.3195 595.32L31.1296 595.1C7.95956 564.3 1.39956 523.89 13.6296 487.01L33.5995 427.11C45.2395 392.03 64.2497 359.91 89.2297 332.87C85.8397 327.45 82.8996 321.74 80.4296 315.81C74.4996 301.52 71.5094 286.52 71.5094 271.16C71.5094 259.08 73.3495 247.29 77.0395 235.94C76.3395 228.68 76.3696 221.39 77.1896 214.13C79.5796 192.28 88.6096 171.87 102.97 155.55C103.01 155.41 103.6 152.94 103.6 152.94L104.23 150.84C109.64 132.34 118.19 115.76 129.61 101.54C156.25 67.9803 197.84 47.9404 240.87 47.9404C283.9 47.9404 310.279 62.6003 311.789 63.0403C346.539 72.3703 377.56 92.7402 399.22 120.48C400.95 122.73 402.94 125.34 404.93 128.03C417.35 133.01 423.79 135.58 427.85 137.35C449.25 146.71 468.74 159.57 485.829 175.56L486.019 175.7C488.599 178.14 491.32 180.83 493.94 183.4L494.049 183.51C495.339 184.77 496.669 186.09 497.509 186.9L497.92 187.27L504.7 193.9C507.35 193.94 509.71 194.01 511.85 194.09H512.47C554.91 195.97 595.73 213.43 627.42 243.2C655.68 269.76 674.65 304.35 681.61 341.56C685.37 346.06 689.28 350.66 690.64 352.32C699.37 362.45 706.41 373.06 712.15 384.81C716.61 393.8 719.34 402.13 720.96 407.1V407.21C721.14 407.66 721.33 408.28 721.48 408.69L722.14 410.53L722.799 412.59C723.279 414.1 724.79 418.49 725.9 421.77V421.88C732.42 440.7 736.84 453.96 739.12 466.27V466.42C744.61 495.82 741.889 526.25 731.279 554.36C730.979 555.13 730.279 557.05 729.759 558.48L729.62 558.89C728.81 561.1 728.14 562.94 727.63 564.34C719.78 585.74 705.96 604.42 687.69 618.31C669.01 632.53 646.83 640.93 623.549 642.55L622.19 642.66L617.18 642.88H603.4C601.7 642.88 599.86 642.88 597.91 642.88C594.59 642.88 591.06 642.88 587.48 642.88H586.97C582.99 642.88 579.01 642.88 575.21 642.88Z" fill="#0054FA"/>
</g>
<path d="M240.87 50.5C262.1 50.5 279.2 54.11 291.16 57.77C297.14 59.6 301.83 61.4401 305.12 62.8501C306.76 63.5501 308.06 64.1501 309 64.5901C309.45 64.8001 309.86 64.9901 310.15 65.1301C310.32 65.2001 310.58 65.3202 310.83 65.4202L311.08 65.5L311.1 65.51L311.13 65.52C344.81 74.55 374.94 94.14 396.2 120.78L397.2 122.05C398.93 124.29 400.9 126.89 402.87 129.55L403.31 130.14L403.98 130.41C414.86 134.77 421.12 137.27 425.2 139L426.82 139.7C447.96 148.94 467.2 161.63 484.09 177.43L484.16 177.49L484.24 177.55L484.33 177.63C486.86 180.02 489.54 182.66 492.13 185.21L492.24 185.32L492.25 185.34L492.27 185.35C493.5 186.55 494.9 187.95 495.75 188.75L495.77 188.78L495.79 188.8L496.18 189.15L502.91 195.73L503.64 196.45L504.66 196.46C507.29 196.5 509.63 196.57 511.76 196.64L511.8 196.65H512.42C554.21 198.51 594.43 215.71 625.67 245.06C653.53 271.26 672.24 305.37 679.1 342.03L679.22 342.69L679.65 343.2C683.43 347.73 687.31 352.29 688.66 353.94L688.68 353.97L688.7 353.99C697.29 363.96 704.21 374.39 709.86 385.94V385.95C714.12 394.54 716.77 402.52 718.4 407.51V407.72L718.6 408.2C718.77 408.61 718.82 408.86 719.07 409.55L719.71 411.34L720.37 413.37C720.84 414.86 722.26 419 723.34 422.19V422.31L723.48 422.71C729.97 441.46 734.31 454.49 736.56 466.51V466.65L736.61 466.89C741.93 495.37 739.41 524.84 729.37 552.15L728.88 553.44C728.58 554.24 727.88 556.17 727.36 557.61L727.22 558.01L725.23 563.46C717.67 584.08 704.45 602.11 686.98 615.63L686.14 616.28C667.86 630.2 646.15 638.42 623.37 640H623.34L622.03 640.11L617.11 640.33H564.01C562.94 640.33 561.95 640.33 560.97 640.29H560.96H560.95C545.39 639.86 529.85 635.83 516.05 628.64L514.93 628.06L513.8 628.59C498.53 635.63 481.75 639.52 464.91 639.74H460.71C456.58 639.74 452.47 639.74 448.35 639.7H448.18C445.89 639.7 443.44 639.69 440.95 639.68C438.47 639.67 435.94 639.66 433.48 639.66H427.96C426.77 639.66 423.34 639.67 420.2 639.68C418.63 639.69 417.12 639.69 416.01 639.69C415.45 639.7 414.99 639.7 414.66 639.7C414.5 639.7 414.37 639.7 414.28 639.7C414.24 639.7 414.2 639.7 414.18 639.7C414.15 639.7 414.14 639.7 414.14 639.7C402.31 639.7 390.52 637.65 379.42 633.66L378.57 633.36L377.72 633.65C370.58 636.11 363.19 637.75 355.62 638.56L354.11 638.72L352.91 638.82L351.66 638.89L351.65 638.9H351.63C348.97 639.08 345.86 639.18 342.41 639.18H279.15C262.39 639.18 246.1 635.19 231.46 627.75L230.3 627.15L229.13 627.75C214.61 635.19 198.39 639.18 181.82 639.18H124.75C88.5199 639.18 55.23 622.65 33.36 593.78L33.3199 593.73L33.2799 593.69L33.14 593.52C10.51 563.4 4.09993 523.89 16.0599 487.82L36.0299 427.92V427.91C47.5599 393.19 66.38 361.38 91.11 334.6L92.4401 333.17L91.4 331.51C88.29 326.55 85.5699 321.33 83.2499 315.91L82.7899 314.83C76.9899 300.84 74.0699 286.18 74.0699 271.16C74.0699 259.34 75.8701 247.82 79.4701 236.73L79.63 236.22L79.5799 235.69C78.9399 229.05 78.93 222.38 79.59 215.74L79.7301 214.41C82.0601 193.08 90.87 173.17 104.89 157.24L105.3 156.78L105.46 156.17C105.48 156.08 105.64 155.41 105.79 154.78C105.86 154.47 105.94 154.15 106 153.92C106.02 153.8 106.05 153.71 106.06 153.64C106.07 153.62 106.07 153.61 106.07 153.59L106.68 151.57V151.56C112.01 133.37 120.41 117.09 131.61 103.15V103.14V103.13C157.76 70.1901 198.62 50.5 240.87 50.5Z" stroke="url(#paint5_linear_1293_739)" stroke-width="5.11569" stroke-miterlimit="10"/>
<g filter="url(#filter6_i_1293_739)">
<path d="M575.209 609.73C571.749 609.73 568.799 609.73 566.259 609.73H564.999C564.669 609.73 564.299 609.73 564.009 609.73C563.269 609.73 562.539 609.73 561.839 609.73C550.779 609.44 539.769 606.561 529.969 601.441C524.989 598.831 520.279 595.621 516.039 591.941C501.229 602.801 482.919 608.921 464.429 609.181C463.909 609.181 463.319 609.181 462.659 609.181C461.989 609.181 461.629 609.181 461.179 609.181H460.779C456.649 609.181 452.529 609.181 448.359 609.141H448.289C443.389 609.141 438.339 609.101 433.479 609.101C428.609 609.101 429.719 609.101 427.839 609.101C427.839 609.101 414.279 609.141 414.139 609.141C401.759 609.141 389.599 605.971 378.799 599.931C370.289 604.501 360.939 607.371 351.249 608.291L350.399 608.371L349.549 608.441C347.559 608.591 345.169 608.661 342.409 608.661C339.639 608.661 341.369 608.661 340.889 608.661H280.989C280.359 608.661 279.769 608.661 279.149 608.661C261.019 608.661 243.599 602.03 230.259 590.24C216.849 602.1 199.749 608.631 181.809 608.631H124.739C98.2192 608.631 73.789 596.501 57.759 575.321L57.6491 575.171C40.9991 553.071 36.3591 524.04 45.1591 497.48L65.099 437.611C77.769 399.481 100.429 365.29 130.639 338.771L134.689 335.191C124.489 326.721 116.339 315.741 111.109 303.101C102.559 282.511 102.599 259.671 111.069 239.521C109.709 232.371 109.379 225 110.189 217.71C112.109 200.06 120.539 183.59 133.509 171.73C134.059 168.63 134.689 165.69 135.349 162.96L135.689 161.521L136.089 160.121C140.289 145.791 146.849 133.05 155.539 122.21C175.949 96.4304 207.859 81.0605 240.909 81.0605C273.949 81.0605 301.619 94.5805 302.979 94.9905C330.909 102.39 355.819 118.711 373.129 140.861C374.969 143.251 377.289 146.351 379.539 149.401C380.719 150.991 381.899 152.571 382.529 153.421L382.669 153.641C383.079 154.191 383.519 154.781 383.959 155.331C386.319 156.261 389.049 157.361 391.519 158.361C403.269 163.031 410.709 166.02 414.539 167.71C432.479 175.56 448.839 186.32 463.169 199.76L463.279 199.881C465.569 202.051 468.179 204.591 470.689 207.061C472.089 208.421 473.529 209.861 474.519 210.821L474.699 211L491.099 227.061C492.349 227.061 493.639 227.061 494.929 227.061C501.779 227.061 506.609 227.141 510.619 227.281H511.029C545.549 228.831 578.819 243.051 604.719 267.401C629.919 291.091 646.089 322.481 650.289 355.861C651.029 356.741 652.719 358.73 652.719 358.73C657.549 364.52 663.559 371.661 665.509 373.951C672.399 381.911 677.919 390.27 682.419 399.48C685.839 406.37 688.059 413.04 689.489 417.46C689.749 418.27 690.119 419.37 690.229 419.74L690.739 421.141L691.189 422.541C691.809 424.491 693.209 428.621 694.609 432.641C700.619 450.141 704.669 462.331 706.589 472.391V472.5C710.969 495.97 708.799 520.24 700.289 542.72C699.989 543.53 699.219 545.66 698.629 547.25L698.519 547.541C697.779 549.571 697.079 551.521 696.569 552.811C690.889 568.321 680.909 581.841 667.639 591.941C654.119 602.251 638.099 608.29 621.299 609.47L620.379 609.551L616.509 609.691H603.609C601.849 609.691 599.969 609.691 597.979 609.691C594.619 609.691 591.009 609.691 587.369 609.691H586.999C583.059 609.691 579.079 609.691 575.319 609.691L575.209 609.73Z" fill="#0054FA"/>
</g>
<path d="M240.909 83.6201C273.459 83.6201 300.369 96.8802 302.259 97.4402L302.289 97.4502L302.329 97.46C329.719 104.73 354.139 120.73 371.099 142.41V142.42C372.929 144.79 375.24 147.87 377.48 150.92H377.49V150.93C378.65 152.49 379.8 154.04 380.43 154.89L380.539 155.06L380.579 155.11L380.609 155.15C381.029 155.72 381.49 156.34 381.97 156.93L382.389 157.47L383.029 157.72C384.199 158.17 385.47 158.68 386.74 159.19L390.559 160.73H390.569C400.869 164.83 407.819 167.62 411.919 169.36L413.509 170.05L413.519 170.06C431.179 177.78 447.279 188.37 461.399 201.6L461.47 201.68L461.499 201.71L461.519 201.73C463.789 203.89 466.399 206.42 468.889 208.88L468.899 208.89C470.229 210.19 471.73 211.68 472.71 212.62V212.63L472.899 212.82L472.909 212.83L489.309 228.89L490.049 229.62H494.93C501.77 229.62 506.559 229.7 510.529 229.84H510.579H510.95C544.3 231.35 576.489 244.9 601.769 268.15L602.97 269.27C627.75 292.56 643.629 323.41 647.749 356.18L647.849 356.92L648.329 357.5C648.699 357.95 649.319 358.68 649.829 359.28C650.089 359.59 650.329 359.87 650.499 360.07C650.579 360.17 650.65 360.25 650.7 360.3C650.73 360.33 650.749 360.35 650.759 360.37C650.759 360.38 650.769 360.38 650.769 360.39H650.779C655.599 366.17 661.599 373.32 663.559 375.61L663.569 375.62C670.319 383.42 675.719 391.59 680.119 400.6L680.129 400.62C683.049 406.49 685.07 412.21 686.49 416.5L687.059 418.25C687.339 419.14 687.669 420.13 687.779 420.48L687.799 420.55L687.829 420.63L688.319 421.97L688.749 423.31V423.32C689.389 425.31 690.79 429.45 692.19 433.47C698.17 450.88 702.139 462.84 704.029 472.64V472.74L704.069 472.97C708.369 495.97 706.239 519.77 697.889 541.81V541.83L697.879 541.84C697.589 542.66 696.82 544.78 696.23 546.35L696.119 546.65V546.66L696.109 546.67C695.369 548.73 694.69 550.62 694.19 551.86L694.18 551.9L694.159 551.93C688.829 566.51 679.569 579.28 667.289 588.97L666.099 589.9H666.089C652.969 599.92 637.419 605.78 621.119 606.92H621.089L620.22 606.99L616.46 607.14H574.899L574.789 607.17H561.869C551.559 606.89 541.259 604.28 532.039 599.63L531.149 599.17C526.349 596.65 521.8 593.56 517.72 590.01L516.18 588.66L514.529 589.87C500.149 600.43 482.359 606.37 464.389 606.62H460.779C456.649 606.62 452.529 606.62 448.379 606.58H448.289C445.839 606.58 443.359 606.57 440.879 606.57C438.399 606.56 435.92 606.55 433.48 606.55H427.799C427.769 606.55 427.73 606.55 427.68 606.55C427.58 606.55 427.439 606.55 427.249 606.55C426.879 606.55 426.35 606.55 425.71 606.55C424.44 606.56 422.739 606.56 421.039 606.57C419.329 606.57 417.619 606.57 416.329 606.58C415.689 606.58 415.149 606.58 414.759 606.58C414.569 606.58 414.409 606.58 414.309 606.58C414.249 606.58 414.21 606.58 414.18 606.58H414.139C402.189 606.58 390.469 603.53 380.049 597.7L378.829 597.01L377.589 597.68C369.379 602.09 360.359 604.86 351.019 605.75L350.18 605.82L349.359 605.89C347.459 606.03 345.129 606.1 342.409 606.1H279.149C261.639 606.1 244.82 599.7 231.95 588.33L230.259 586.83L228.559 588.33C215.619 599.78 199.129 606.07 181.809 606.07H124.74C99.4196 606.07 76.0894 594.69 60.5394 574.74L59.7994 573.78L59.6995 573.64V573.63L58.9495 572.63C43.4195 551.33 39.1794 523.66 47.5894 498.28L67.5193 438.42C79.8593 401.31 101.759 367.97 130.929 341.92L132.329 340.69V340.68L136.379 337.11L138.619 335.13L136.329 333.22C126.749 325.27 119.04 315.04 113.96 303.27L113.48 302.12H113.47L113.089 301.19C105.189 281.46 105.359 259.72 113.429 240.51L113.73 239.8L113.589 239.04C112.349 232.56 111.999 225.91 112.599 219.31L112.73 217.99V217.98C114.58 200.96 122.72 185.06 135.24 173.62L135.879 173.03L136.029 172.18C136.569 169.14 137.189 166.24 137.839 163.57L137.849 163.54L138.159 162.17L138.549 160.83C142.659 146.81 149.069 134.37 157.539 123.82V123.81L157.549 123.8C177.469 98.63 208.629 83.6201 240.909 83.6201Z" stroke="url(#paint6_linear_1293_739)" stroke-width="5.11569" stroke-miterlimit="10"/>
<g filter="url(#filter7_i_1293_739)">
<path d="M575.209 576.57C571.749 576.57 568.839 576.57 566.369 576.57H564.779C564.529 576.57 564.229 576.57 564.009 576.57C563.609 576.57 563.199 576.57 562.789 576.57C550.339 576.24 534.209 570.6 528.459 559.62C522.709 548.65 521.569 524 521.569 524C521.569 524 509.339 555.76 496.699 565C487.339 572 475.699 575.91 463.869 576.06C463.509 576.06 463.099 576.06 462.579 576.06C462.069 576.06 461.699 576.06 461.299 576.06H460.819C456.729 576.06 452.599 576.06 448.439 576.02C443.499 576.02 438.379 575.98 433.409 575.98C428.429 575.98 429.569 575.98 427.659 575.98C427.659 575.98 414.209 576.02 414.099 576.02C399.359 576.02 385.919 567.73 379.179 554.95C378.109 556.9 376.849 558.74 375.419 560.51C368.679 568.91 358.729 574.32 348.079 575.32H347.679C347.679 575.36 347.269 575.39 347.269 575.39C345.649 575.5 343.509 575.5 342.369 575.5C341.229 575.5 341.519 575.5 341.119 575.5H280.479C279.999 575.5 279.549 575.5 279.079 575.5C267.539 575.5 256.749 570.79 249.199 562.46C244.109 556.97 240.719 550.08 239.359 542.42C238.699 538.59 238.619 535.2 238.699 532.62V522.78C238.699 522.41 238.699 522.05 238.699 521.71C234.829 528.83 228.859 534.61 221.639 538.29C220.199 559.03 202.849 575.5 181.739 575.5H124.669C108.609 575.5 93.8291 568.13 84.1091 555.35L84.039 555.28C73.939 541.87 71.139 524.18 76.519 507.94L96.4492 448.11C107.249 415.54 126.619 386.36 152.379 363.7L186.309 333.9C179.969 330.07 174.589 324.69 170.759 318.21C157.649 313.64 147.069 303.62 141.619 290.43C136.019 276.87 136.529 261.8 143.059 249.05C143.899 247.32 145.159 244.85 146.409 242.31C143.419 235.83 142.209 228.53 143.019 221.31C144.199 210.67 149.609 200.83 157.939 194.31C158.379 193.98 158.749 193.68 159.079 193.43L159.229 193.31L160.629 192.28C162.839 190.51 164.419 187.71 164.869 184.91C165.339 181.23 166.159 175.89 167.369 170.88L167.559 170.18L167.779 169.48C170.759 159.31 175.329 150.36 181.329 142.92C195.519 124.94 217.699 114.22 240.759 114.22C263.819 114.22 292.709 126.6 294.179 126.96C315.219 132.53 333.929 144.68 346.859 161.26C348.489 163.33 350.659 166.27 352.799 169.15C354.049 170.84 355.259 172.46 355.999 173.46L356.079 173.57C356.699 174.42 357.359 175.3 358.029 176.18C359.279 177.88 361.159 180.42 362.009 181.27L362.229 181.45C363.259 182.41 364.479 183.22 365.759 183.74L366.059 183.85C367.979 184.66 373.649 186.9 379.139 189.11C390.259 193.54 397.819 196.59 401.129 198.03C415.609 204.37 428.839 213.06 440.409 223.89H440.479C442.509 225.85 444.969 228.28 447.329 230.6C448.839 232.11 450.279 233.51 451.389 234.58L472.939 255.69C473.449 256.2 473.969 256.72 474.519 257.27C475.369 258.08 476.579 259.33 477.509 260.14H477.949H478.649C479.859 260.14 481.149 260.14 482.519 260.14C483.879 260.14 486.269 260.14 488.259 260.14C490.439 260.14 492.649 260.14 494.819 260.14C501.229 260.14 505.689 260.22 509.259 260.33H509.479C536.079 261.51 561.799 272.56 581.919 291.5C601.769 310.17 614.369 334.78 617.429 360.9C617.909 364.04 618.089 366.84 618.169 369.19C620.339 371.77 623.579 375.64 627.229 379.99C632.389 386.18 638.279 393.18 640.309 395.53C645.319 401.36 649.369 407.43 652.619 414.1C655.009 418.89 656.629 423.79 657.919 427.77C658.329 429.02 658.729 430.24 659.029 431.05L659.279 431.75L659.499 432.45C660.239 434.81 661.679 439.01 663.189 443.43C668.529 459.01 672.439 470.65 673.909 478.5C677.149 496.07 675.529 514.2 669.159 531C668.829 531.92 668.019 534.06 667.349 535.94C666.579 538.07 665.839 540.1 665.359 541.31C661.859 550.89 655.669 559.26 647.459 565.56C639.089 571.93 629.219 575.69 618.899 576.39H618.459L615.739 576.53H603.689C601.879 576.53 599.929 576.53 597.909 576.53C594.409 576.53 590.649 576.53 586.849 576.53C582.949 576.53 578.969 576.53 575.249 576.53L575.209 576.57Z" fill="#0054FA"/>
</g>
<mask id="mask1_1293_739" style="mask-type:luminance" maskUnits="userSpaceOnUse" x="73" y="114" width="603" height="463">
<path d="M575.209 576.57C571.749 576.57 568.839 576.57 566.369 576.57H564.779C564.529 576.57 564.229 576.57 564.009 576.57C563.609 576.57 563.199 576.57 562.789 576.57C550.339 576.24 534.209 570.6 528.459 559.62C522.709 548.65 521.569 524 521.569 524C521.569 524 509.339 555.76 496.699 565C487.339 572 475.699 575.91 463.869 576.06C463.509 576.06 463.099 576.06 462.579 576.06C462.069 576.06 461.699 576.06 461.299 576.06H460.819C456.729 576.06 452.599 576.06 448.439 576.02C443.499 576.02 438.379 575.98 433.409 575.98C428.429 575.98 429.569 575.98 427.659 575.98C427.659 575.98 414.209 576.02 414.099 576.02C399.359 576.02 385.919 567.73 379.179 554.95C378.109 556.9 376.849 558.74 375.419 560.51C368.679 568.91 358.729 574.32 348.079 575.32H347.679C347.679 575.36 347.269 575.39 347.269 575.39C345.649 575.5 343.509 575.5 342.369 575.5C341.229 575.5 341.519 575.5 341.119 575.5H280.479C279.999 575.5 279.549 575.5 279.079 575.5C267.539 575.5 256.749 570.79 249.199 562.46C244.109 556.97 240.719 550.08 239.359 542.42C238.699 538.59 238.619 535.2 238.699 532.62V522.78C238.699 522.41 238.699 522.05 238.699 521.71C234.829 528.83 228.859 534.61 221.639 538.29C220.199 559.03 202.849 575.5 181.739 575.5H124.669C108.609 575.5 93.8291 568.13 84.1091 555.35L84.039 555.28C73.939 541.87 71.139 524.18 76.519 507.94L96.4492 448.11C107.249 415.54 126.619 386.36 152.379 363.7L186.309 333.9C179.969 330.07 174.589 324.69 170.759 318.21C157.649 313.64 147.069 303.62 141.619 290.43C136.019 276.87 136.529 261.8 143.059 249.05C143.899 247.32 145.159 244.85 146.409 242.31C143.419 235.83 142.209 228.53 143.019 221.31C144.199 210.67 149.609 200.83 157.939 194.31C158.379 193.98 158.749 193.68 159.079 193.43L159.229 193.31L160.629 192.28C162.839 190.51 164.419 187.71 164.869 184.91C165.339 181.23 166.159 175.89 167.369 170.88L167.559 170.18L167.779 169.48C170.759 159.31 175.329 150.36 181.329 142.92C195.519 124.94 217.699 114.22 240.759 114.22C263.819 114.22 292.709 126.6 294.179 126.96C315.219 132.53 333.929 144.68 346.859 161.26C348.489 163.33 350.659 166.27 352.799 169.15C354.049 170.84 355.259 172.46 355.999 173.46L356.079 173.57C356.699 174.42 357.359 175.3 358.029 176.18C359.279 177.88 361.159 180.42 362.009 181.27L362.229 181.45C363.259 182.41 364.479 183.22 365.759 183.74L366.059 183.85C367.979 184.66 373.649 186.9 379.139 189.11C390.259 193.54 397.819 196.59 401.129 198.03C415.609 204.37 428.839 213.06 440.409 223.89H440.479C442.509 225.85 444.969 228.28 447.329 230.6C448.839 232.11 450.279 233.51 451.389 234.58L472.939 255.69C473.449 256.2 473.969 256.72 474.519 257.27C475.369 258.08 476.579 259.33 477.509 260.14H477.949H478.649C479.859 260.14 481.149 260.14 482.519 260.14C483.879 260.14 486.269 260.14 488.259 260.14C490.439 260.14 492.649 260.14 494.819 260.14C501.229 260.14 505.689 260.22 509.259 260.33H509.479C536.079 261.51 561.799 272.56 581.919 291.5C601.769 310.17 614.369 334.78 617.429 360.9C617.909 364.04 618.089 366.84 618.169 369.19C620.339 371.77 623.579 375.64 627.229 379.99C632.389 386.18 638.279 393.18 640.309 395.53C645.319 401.36 649.369 407.43 652.619 414.1C655.009 418.89 656.629 423.79 657.919 427.77C658.329 429.02 658.729 430.24 659.029 431.05L659.279 431.75L659.499 432.45C660.239 434.81 661.679 439.01 663.189 443.43C668.529 459.01 672.439 470.65 673.909 478.5C677.149 496.07 675.529 514.2 669.159 531C668.829 531.92 668.019 534.06 667.349 535.94C666.579 538.07 665.839 540.1 665.359 541.31C661.859 550.89 655.669 559.26 647.459 565.56C639.089 571.93 629.219 575.69 618.899 576.39H618.459L615.739 576.53H603.689C601.879 576.53 599.929 576.53 597.909 576.53C594.409 576.53 590.649 576.53 586.849 576.53C582.949 576.53 578.969 576.53 575.249 576.53L575.209 576.57Z" fill="white"/>
</mask>
<g mask="url(#mask1_1293_739)">
<path d="M575.209 576.57C571.749 576.57 568.839 576.57 566.369 576.57H564.779C564.529 576.57 564.229 576.57 564.009 576.57C563.609 576.57 563.199 576.57 562.789 576.57C550.339 576.24 534.209 570.6 528.459 559.62C522.709 548.65 521.569 524 521.569 524C521.569 524 509.339 555.76 496.699 565C487.339 572 475.699 575.91 463.869 576.06C463.509 576.06 463.099 576.06 462.579 576.06C462.069 576.06 461.699 576.06 461.299 576.06H460.819C456.729 576.06 452.599 576.06 448.439 576.02C443.499 576.02 438.379 575.98 433.409 575.98C428.429 575.98 429.569 575.98 427.659 575.98C427.659 575.98 414.209 576.02 414.099 576.02C399.359 576.02 385.919 567.73 379.179 554.95C378.109 556.9 376.849 558.74 375.419 560.51C368.679 568.91 358.729 574.32 348.079 575.32H347.679C347.679 575.36 347.269 575.39 347.269 575.39C345.649 575.5 343.509 575.5 342.369 575.5C341.229 575.5 341.519 575.5 341.119 575.5H280.479C279.999 575.5 279.549 575.5 279.079 575.5C267.539 575.5 256.749 570.79 249.199 562.46C244.109 556.97 240.719 550.08 239.359 542.42C238.699 538.59 238.619 535.2 238.699 532.62V522.78C238.699 522.41 238.699 522.05 238.699 521.71C234.829 528.83 228.859 534.61 221.639 538.29C220.199 559.03 202.849 575.5 181.739 575.5H124.669C108.609 575.5 93.8291 568.13 84.1091 555.35L84.039 555.28C73.939 541.87 71.139 524.18 76.519 507.94L96.4492 448.11C107.249 415.54 126.619 386.36 152.379 363.7L186.309 333.9C179.969 330.07 174.589 324.69 170.759 318.21C157.649 313.64 147.069 303.62 141.619 290.43C136.019 276.87 136.529 261.8 143.059 249.05C143.899 247.32 145.159 244.85 146.409 242.31C143.419 235.83 142.209 228.53 143.019 221.31C144.199 210.67 149.609 200.83 157.939 194.31C158.379 193.98 158.749 193.68 159.079 193.43L159.229 193.31L160.629 192.28C162.839 190.51 164.419 187.71 164.869 184.91C165.339 181.23 166.159 175.89 167.369 170.88L167.559 170.18L167.779 169.48C170.759 159.31 175.329 150.36 181.329 142.92C195.519 124.94 217.699 114.22 240.759 114.22C263.819 114.22 292.709 126.6 294.179 126.96C315.219 132.53 333.929 144.68 346.859 161.26C348.489 163.33 350.659 166.27 352.799 169.15C354.049 170.84 355.259 172.46 355.999 173.46L356.079 173.57C356.699 174.42 357.359 175.3 358.029 176.18C359.279 177.88 361.159 180.42 362.009 181.27L362.229 181.45C363.259 182.41 364.479 183.22 365.759 183.74L366.059 183.85C367.979 184.66 373.649 186.9 379.139 189.11C390.259 193.54 397.819 196.59 401.129 198.03C415.609 204.37 428.839 213.06 440.409 223.89H440.479C442.509 225.85 444.969 228.28 447.329 230.6C448.839 232.11 450.279 233.51 451.389 234.58L472.939 255.69C473.449 256.2 473.969 256.72 474.519 257.27C475.369 258.08 476.579 259.33 477.509 260.14H477.949H478.649C479.859 260.14 481.149 260.14 482.519 260.14C483.879 260.14 486.269 260.14 488.259 260.14C490.439 260.14 492.649 260.14 494.819 260.14C501.229 260.14 505.689 260.22 509.259 260.33H509.479C536.079 261.51 561.799 272.56 581.919 291.5C601.769 310.17 614.369 334.78 617.429 360.9C617.909 364.04 618.089 366.84 618.169 369.19C620.339 371.77 623.579 375.64 627.229 379.99C632.389 386.18 638.279 393.18 640.309 395.53C645.319 401.36 649.369 407.43 652.619 414.1C655.009 418.89 656.629 423.79 657.919 427.77C658.329 429.02 658.729 430.24 659.029 431.05L659.279 431.75L659.499 432.45C660.239 434.81 661.679 439.01 663.189 443.43C668.529 459.01 672.439 470.65 673.909 478.5C677.149 496.07 675.529 514.2 669.159 531C668.829 531.92 668.019 534.06 667.349 535.94C666.579 538.07 665.839 540.1 665.359 541.31C661.859 550.89 655.669 559.26 647.459 565.56C639.089 571.93 629.219 575.69 618.899 576.39H618.459L615.739 576.53H603.689C601.879 576.53 599.929 576.53 597.909 576.53C594.409 576.53 590.649 576.53 586.849 576.53C582.949 576.53 578.969 576.53 575.249 576.53L575.209 576.57Z" stroke="url(#paint7_linear_1293_739)" stroke-width="10.2314" stroke-miterlimit="10"/>
</g>
<g filter="url(#filter8_d_1293_739)">
<path d="M555.79 532.91L556.75 536.52L557.23 538.29C558 541.17 560.8 543.38 563.79 543.38C563.97 543.38 564.38 543.38 564.63 543.38H566.51C577.31 543.45 593.04 543.34 603.83 543.38H615.03L616.58 543.3C624.43 542.75 631.609 537.3 634.26 529.86C635.04 527.83 637.32 521.49 638.13 519.32C642.3 508.3 643.47 496.18 641.3 484.61C639.64 475.85 630.69 451.46 627.82 442.39C626.31 438.23 624.8 432.63 622.84 428.8C620.78 424.56 618.24 420.77 615.14 417.2C611.13 412.55 594.55 392.66 591.09 388.57L588.65 385.7C583.64 380.1 585.78 372.25 584.56 365.51C580.4 326.97 546.58 295.22 508.01 293.48C499.9 293.19 486.82 293.37 478.39 293.34C472.75 293.52 467.08 292.38 462.1 289.69C457.68 287.59 453.26 282.84 449.76 279.41L428.39 258.48C425.37 255.57 420.73 250.9 417.74 248.1C408.98 239.88 398.81 233.17 387.79 228.39C382.89 226.21 358.58 216.67 353.23 214.42C348.19 212.36 343.51 209.34 339.53 205.62C335.85 202.23 332.6 197.44 329.66 193.53C327.48 190.7 323.02 184.58 320.74 181.67C311.97 170.43 299.37 162.62 285.67 159.01C280.44 157.61 253.65 149.1 248.42 148.11C233.2 145.16 216.81 151.35 207.27 163.62C203.66 168 201.19 173.38 199.6 178.83C198.79 182.11 198.17 186.02 197.76 189.41C196.14 200.94 189.88 211.7 180.67 218.77L179.01 219.99C178.86 220.1 178.75 220.17 178.71 220.24L178.46 220.43C175.58 222.6 175.07 227.17 177.43 229.93C177.54 230.08 177.79 230.38 177.98 230.6L182.77 236.34L182.51 236.09C184.02 237.6 184.5 239.99 183.65 241.94C182.84 243.6 181.26 246.81 180.41 248.5C178.49 252.37 174.59 260.22 172.67 264.08C168.21 272.63 172.86 284.16 182.1 287.07L190.28 289.8C192.64 290.5 194.67 292.19 195.81 294.37L197.8 298.38L198.79 300.34C200.97 305.01 206.05 307.81 211.14 307.45C212.76 307.45 240.65 307.45 248.42 307.45C249.41 307.45 250.22 308.26 250.22 309.25C250.22 310.25 249.6 310.87 248.75 311.06L235.38 313.71C233.46 314.11 232.06 315.77 232.06 317.72V321.11C232.06 331.76 227.46 341.93 219.46 348.97L174.26 388.64C152.89 407.4 136.86 431.56 127.91 458.6L107.98 518.4C106.06 524.11 106.87 530.52 110.52 535.34C113.91 539.8 119.03 542.38 124.67 542.38H181.74C185.49 542.38 188.55 539.32 188.55 535.53V529.12C188.55 527.31 187.81 525.54 186.56 524.26L183.69 521.38C181.88 519.54 181.04 516.85 181.77 514.38C182.66 511.43 185.31 509.48 188.33 509.48H203.58C207.34 509.48 210.4 506.42 210.4 502.63V491.69C210.4 483.51 214.23 475.77 220.79 470.87L222.08 469.88C241.57 455.22 253.47 432.26 253.21 407.84C253.06 395.72 258.44 384.41 267.91 376.93L279.66 367.61C280.77 366.72 281.36 365.32 281.17 363.92C280.51 358.73 279.33 353.57 277.64 348.63C276.42 345.02 273.88 337.55 272.66 333.97C265.22 313.41 267.5 289.43 279 270.86C286.26 259 297.09 249.46 309.54 244.01C310.42 243.6 311.46 244.01 311.9 244.89C312.34 245.74 312.01 246.77 311.2 247.29C283.42 264.56 269.57 300.19 280.88 331.21C282.02 334.78 284.6 342.56 285.67 345.95C290.75 361.42 291.45 378.33 287.55 394.1L265.88 473.97L265.18 476.47C262.16 486.31 263.52 497.1 268.5 506.06C268.68 506.53 269.75 508.52 269.94 508.93C272.22 513.13 271.78 518.29 271.78 522.82V533.13C271.7 535.42 271.7 538.29 273.47 540.06C274.98 541.87 277.34 542.57 279.62 542.38H341.41C342.03 542.38 344.25 542.38 344.83 542.34C348.52 542.01 351.28 538.48 350.95 534.79V529.63C350.95 528.49 350.84 527.35 350.36 526.32C349.92 525.25 348.96 524.26 348.11 523.44L344.43 519.76C341.19 516.59 340.82 510.96 343.55 507.38C344.47 506.06 349.99 498.36 351.02 496.88C356.37 489.11 366.61 475.22 371.77 467.48C383.41 449.69 387.13 427.07 382.08 406.47C380.94 400.76 377.51 392.99 375.63 387.43C373.24 380.58 367.09 364.81 365.17 357.88C362.15 347.53 362.15 336.66 362.85 326.05C363.18 319.75 363.55 313.41 364.14 307.08C364.25 306.12 365.02 305.38 366.02 305.38C367.01 305.38 367.79 306.12 367.9 307.08C368.78 316.77 369.19 326.64 369.67 336.29C370.33 346.31 372.65 355.71 376.45 365.03C378.99 371.59 385.1 387.69 387.5 393.99C389.45 399.11 390.89 404.49 391.81 409.9C392.51 413.99 395.23 417.45 399.07 419.04C404.78 421.4 410.74 423.5 417.04 425.26C423.49 427.07 430.31 424.01 433.22 417.93C433.7 416.9 434.25 415.87 434.77 414.84C438.93 406.73 444.57 399.47 450.13 392.33C455.25 385.73 460.55 379.29 466.08 372.95C466.71 372.21 467.78 372.1 468.59 372.65C469.36 373.21 469.62 374.31 469.14 375.12C462.8 385.73 455.25 397.23 448.4 407.36C440.26 419.96 434.54 434.18 432.11 448.99C430.23 460.85 426.73 483.1 424.82 495.19C424.04 499.65 423.64 505.65 421.21 509.59C419.07 513.79 414.13 517.14 410.63 520.09L408.06 522.19L407.72 522.45L407.54 522.63C405.62 524.29 404.85 527.06 405.62 529.49C406.36 532.07 407.39 536.34 408.13 538.73C409.01 541.2 411.56 542.93 414.21 542.86H427.54C438.56 542.79 449.83 542.86 460.85 542.86C461.33 542.86 462.84 542.86 463.35 542.86C468.22 542.86 473.08 541.28 476.99 538.33C481.92 534.75 484.32 529.74 486.27 523.89C487.74 519.87 496.18 497.07 497.84 492.54C499.35 488.34 501.12 483.8 503.07 479.79C509.15 467.23 517.66 455.88 528.27 446.82C541.13 436.24 550.67 422.57 557.12 406.95C557.49 406.03 558.48 405.55 559.4 405.81C560.32 406.07 560.95 406.99 560.8 407.95C558.66 421.06 552.36 433.29 543.67 443.32C540.21 447.33 538.18 452.38 538.18 457.68V462.1C538.18 464.24 538.18 466.75 538.55 468.88C539.43 474.19 542.31 479.09 546.32 482.63L549.05 485.17L560.06 495.3L565.55 500.38C567.06 501.67 568.28 503.37 568.8 505.32C569.98 509.3 568.13 513.68 564.74 515.97C563.31 517.14 560.36 519.5 558.92 520.68C558.26 521.27 557.04 522.12 556.45 522.78C554.8 524.48 554.17 527.09 554.76 529.38L555.72 532.99H555.75L555.79 532.91Z" fill="white"/>
</g>
</g>
<defs>
<filter id="filter0_i_1293_739" x="-158.204" y="-117.92" width="1065.82" height="930" filterUnits="userSpaceOnUse" color-interpolation-filters="sRGB">
<feFlood flood-opacity="0" result="BackgroundImageFix"/>
<feBlend mode="normal" in="SourceGraphic" in2="BackgroundImageFix" result="shape"/>
<feColorMatrix in="SourceAlpha" type="matrix" values="0 0 0 0 0 0 0 0 0 0 0 0 0 0 0 0 0 0 127 0" result="hardAlpha"/>
<feOffset dy="3.41046"/>
<feGaussianBlur stdDeviation="1.70523"/>
<feComposite in2="hardAlpha" operator="arithmetic" k2="-1" k3="1"/>
<feColorMatrix type="matrix" values="0 0 0 0 0 0 0 0 0 0 0 0 0 0 0 0 0 0 0.25 0"/>
<feBlend mode="normal" in2="shape" result="effect1_innerShadow_1293_739"/>
</filter>
<filter id="filter1_i_1293_739" x="-125.068" y="-84.7598" width="999.528" height="863.681" filterUnits="userSpaceOnUse" color-interpolation-filters="sRGB">
<feFlood flood-opacity="0" result="BackgroundImageFix"/>
<feBlend mode="normal" in="SourceGraphic" in2="BackgroundImageFix" result="shape"/>
<feColorMatrix in="SourceAlpha" type="matrix" values="0 0 0 0 0 0 0 0 0 0 0 0 0 0 0 0 0 0 127 0" result="hardAlpha"/>
<feOffset dy="3.41046"/>
<feGaussianBlur stdDeviation="1.70523"/>
<feComposite in2="hardAlpha" operator="arithmetic" k2="-1" k3="1"/>
<feColorMatrix type="matrix" values="0 0 0 0 0 0 0 0 0 0 0 0 0 0 0 0 0 0 0.25 0"/>
<feBlend mode="normal" in2="shape" result="effect1_innerShadow_1293_739"/>
</filter>
<filter id="filter2_i_1293_739" x="-91.8975" y="-51.5996" width="933.226" height="797.37" filterUnits="userSpaceOnUse" color-interpolation-filters="sRGB">
<feFlood flood-opacity="0" result="BackgroundImageFix"/>
<feBlend mode="normal" in="SourceGraphic" in2="BackgroundImageFix" result="shape"/>
<feColorMatrix in="SourceAlpha" type="matrix" values="0 0 0 0 0 0 0 0 0 0 0 0 0 0 0 0 0 0 127 0" result="hardAlpha"/>
<feOffset dy="3.41046"/>
<feGaussianBlur stdDeviation="1.70523"/>
<feComposite in2="hardAlpha" operator="arithmetic" k2="-1" k3="1"/>
<feColorMatrix type="matrix" values="0 0 0 0 0 0 0 0 0 0 0 0 0 0 0 0 0 0 0.25 0"/>
<feBlend mode="normal" in2="shape" result="effect1_innerShadow_1293_739"/>
</filter>
<filter id="filter3_i_1293_739" x="-58.7588" y="-18.4102" width="866.929" height="731.021" filterUnits="userSpaceOnUse" color-interpolation-filters="sRGB">
<feFlood flood-opacity="0" result="BackgroundImageFix"/>
<feBlend mode="normal" in="SourceGraphic" in2="BackgroundImageFix" result="shape"/>
<feColorMatrix in="SourceAlpha" type="matrix" values="0 0 0 0 0 0 0 0 0 0 0 0 0 0 0 0 0 0 127 0" result="hardAlpha"/>
<feOffset dy="3.41046"/>
<feGaussianBlur stdDeviation="1.70523"/>
<feComposite in2="hardAlpha" operator="arithmetic" k2="-1" k3="1"/>
<feColorMatrix type="matrix" values="0 0 0 0 0 0 0 0 0 0 0 0 0 0 0 0 0 0 0.25 0"/>
<feBlend mode="normal" in2="shape" result="effect1_innerShadow_1293_739"/>
</filter>
<filter id="filter4_i_1293_739" x="-25.541" y="14.1782" width="800.517" height="665.272" filterUnits="userSpaceOnUse" color-interpolation-filters="sRGB">
<feFlood flood-opacity="0" result="BackgroundImageFix"/>
<feBlend mode="normal" in="SourceGraphic" in2="BackgroundImageFix" result="shape"/>
<feColorMatrix in="SourceAlpha" type="matrix" values="0 0 0 0 0 0 0 0 0 0 0 0 0 0 0 0 0 0 127 0" result="hardAlpha"/>
<feOffset dy="3.41046"/>
<feGaussianBlur stdDeviation="1.70523"/>
<feComposite in2="hardAlpha" operator="arithmetic" k2="-1" k3="1"/>
<feColorMatrix type="matrix" values="0 0 0 0 0 0 0 0 0 0 0 0 0 0 0 0 0 0 0.25 0"/>
<feBlend mode="normal" in2="shape" result="effect1_innerShadow_1293_739"/>
</filter>
<filter id="filter5_i_1293_739" x="7.58203" y="47.9404" width="734.303" height="598.351" filterUnits="userSpaceOnUse" color-interpolation-filters="sRGB">
<feFlood flood-opacity="0" result="BackgroundImageFix"/>
<feBlend mode="normal" in="SourceGraphic" in2="BackgroundImageFix" result="shape"/>
<feColorMatrix in="SourceAlpha" type="matrix" values="0 0 0 0 0 0 0 0 0 0 0 0 0 0 0 0 0 0 127 0" result="hardAlpha"/>
<feOffset dy="3.41046"/>
<feGaussianBlur stdDeviation="1.70523"/>
<feComposite in2="hardAlpha" operator="arithmetic" k2="-1" k3="1"/>
<feColorMatrix type="matrix" values="0 0 0 0 0 0 0 0 0 0 0 0 0 0 0 0 0 0 0.25 0"/>
<feBlend mode="normal" in2="shape" result="effect1_innerShadow_1293_739"/>
</filter>
<filter id="filter6_i_1293_739" x="40.7861" y="81.0605" width="668.008" height="532.08" filterUnits="userSpaceOnUse" color-interpolation-filters="sRGB">
<feFlood flood-opacity="0" result="BackgroundImageFix"/>
<feBlend mode="normal" in="SourceGraphic" in2="BackgroundImageFix" result="shape"/>
<feColorMatrix in="SourceAlpha" type="matrix" values="0 0 0 0 0 0 0 0 0 0 0 0 0 0 0 0 0 0 127 0" result="hardAlpha"/>
<feOffset dy="3.41046"/>
<feGaussianBlur stdDeviation="1.70523"/>
<feComposite in2="hardAlpha" operator="arithmetic" k2="-1" k3="1"/>
<feColorMatrix type="matrix" values="0 0 0 0 0 0 0 0 0 0 0 0 0 0 0 0 0 0 0.25 0"/>
<feBlend mode="normal" in2="shape" result="effect1_innerShadow_1293_739"/>
</filter>
<filter id="filter7_i_1293_739" x="73.833" y="114.22" width="601.7" height="465.761" filterUnits="userSpaceOnUse" color-interpolation-filters="sRGB">
<feFlood flood-opacity="0" result="BackgroundImageFix"/>
<feBlend mode="normal" in="SourceGraphic" in2="BackgroundImageFix" result="shape"/>
<feColorMatrix in="SourceAlpha" type="matrix" values="0 0 0 0 0 0 0 0 0 0 0 0 0 0 0 0 0 0 127 0" result="hardAlpha"/>
<feOffset dy="3.41046"/>
<feGaussianBlur stdDeviation="1.70523"/>
<feComposite in2="hardAlpha" operator="arithmetic" k2="-1" k3="1"/>
<feColorMatrix type="matrix" values="0 0 0 0 0 0 0 0 0 0 0 0 0 0 0 0 0 0 0.25 0"/>
<feBlend mode="normal" in2="shape" result="effect1_innerShadow_1293_739"/>
</filter>
<filter id="filter8_d_1293_739" x="64.3409" y="104.752" width="620.659" height="481.283" filterUnits="userSpaceOnUse" color-interpolation-filters="sRGB">
<feFlood flood-opacity="0" result="BackgroundImageFix"/>
<feColorMatrix in="SourceAlpha" type="matrix" values="0 0 0 0 0 0 0 0 0 0 0 0 0 0 0 0 0 0 127 0" result="hardAlpha"/>
<feOffset/>
<feGaussianBlur stdDeviation="21.3154"/>
<feComposite in2="hardAlpha" operator="out"/>
<feColorMatrix type="matrix" values="0 0 0 0 0 0 0 0 0 0 0 0 0 0 0 0 0 0 0.6 0"/>
<feBlend mode="normal" in2="BackgroundImageFix" result="effect1_dropShadow_1293_739"/>
<feBlend mode="normal" in="SourceGraphic" in2="effect1_dropShadow_1293_739" result="shape"/>
</filter>
<linearGradient id="paint0_linear_1293_739" x1="-28.2406" y1="93.3701" x2="628.309" y2="694.84" gradientUnits="userSpaceOnUse">
<stop offset="0.125" stop-color="#89D0FF"/>
<stop offset="0.4" stop-color="#EBBF9A"/>
<stop offset="0.635" stop-color="#EB8280"/>
<stop offset="0.88" stop-color="#A281FF"/>
</linearGradient>
<linearGradient id="paint1_linear_1293_739" x1="24.8299" y1="111.06" x2="634.18" y2="679.06" gradientUnits="userSpaceOnUse">
<stop offset="0.125" stop-color="#89D0FF"/>
<stop offset="0.4" stop-color="#EBBF9A"/>
<stop offset="0.635" stop-color="#EB8280"/>
<stop offset="0.88" stop-color="#A281FF"/>
</linearGradient>
<linearGradient id="paint2_linear_1293_739" x1="73.9699" y1="122.85" x2="606.68" y2="657.23" gradientUnits="userSpaceOnUse">
<stop offset="0.125" stop-color="#89D0FF"/>
<stop offset="0.4" stop-color="#EBBF9A"/>
<stop offset="0.635" stop-color="#EB8280"/>
<stop offset="0.88" stop-color="#A281FF"/>
</linearGradient>
<linearGradient id="paint3_linear_1293_739" x1="60.2094" y1="158.23" x2="620.829" y2="642.05" gradientUnits="userSpaceOnUse">
<stop offset="0.125" stop-color="#89D0FF"/>
<stop offset="0.4" stop-color="#EBBF9A"/>
<stop offset="0.635" stop-color="#EB8280"/>
<stop offset="0.88" stop-color="#A281FF"/>
</linearGradient>
<linearGradient id="paint4_linear_1293_739" x1="79.8601" y1="124.82" x2="618.11" y2="653.24" gradientUnits="userSpaceOnUse">
<stop offset="0.125" stop-color="#89D0FF"/>
<stop offset="0.4" stop-color="#EBBF9A"/>
<stop offset="0.635" stop-color="#EB8280"/>
<stop offset="0.88" stop-color="#A281FF"/>
</linearGradient>
<linearGradient id="paint5_linear_1293_739" x1="70.03" y1="134.65" x2="609.32" y2="639.65" gradientUnits="userSpaceOnUse">
<stop offset="0.125" stop-color="#89D0FF"/>
<stop offset="0.4" stop-color="#EBBF9A"/>
<stop offset="0.635" stop-color="#EB8280"/>
<stop offset="0.88" stop-color="#A281FF"/>
</linearGradient>
<linearGradient id="paint6_linear_1293_739" x1="93.6194" y1="113.03" x2="597.71" y2="632.96" gradientUnits="userSpaceOnUse">
<stop offset="0.125" stop-color="#89D0FF"/>
<stop offset="0.4" stop-color="#EBBF9A"/>
<stop offset="0.635" stop-color="#EB8280"/>
<stop offset="0.88" stop-color="#A281FF"/>
</linearGradient>
<linearGradient id="paint7_linear_1293_739" x1="93.619" y1="124.82" x2="602.269" y2="629" gradientUnits="userSpaceOnUse">
<stop offset="0.125" stop-color="#89D0FF"/>
<stop offset="0.4" stop-color="#EBBF9A"/>
<stop offset="0.635" stop-color="#EB8280"/>
<stop offset="0.88" stop-color="#A281FF"/>
</linearGradient>
</defs>
</svg>
