<?xml version="1.0" encoding="utf-8"?>
<!-- Generator: Adobe Illustrator 27.8.0, SVG Export Plug-In . SVG Version: 6.00 Build 0)  -->
<svg version="1.1" id="Layer_1" xmlns="http://www.w3.org/2000/svg" xmlns:xlink="http://www.w3.org/1999/xlink" x="0px" y="0px"
	 viewBox="0 0 219 244" style="enable-background:new 0 0 219 244;" xml:space="preserve">
<g>
	<polygon points="96,127.6 109.4,136.9 122.9,127.6 109.4,129.9 	"/>
	<polygon points="90,93.8 73.6,91.5 81.1,101.1 96,104.4 	"/>
	<path d="M169.6,52.2l2.8-14L135,33.4l-25.5-13.9L83.9,33.4l-37,4.8l2.8,14L21.4,86.4h17.9L21.4,158l22.8-5.2l23.2,51.9l16.5-7.9
		l25.6,27.7l25.5-27.7l16.9,7.9l22.8-51.9l22.9,5.2l-17.8-71.6h17.8L169.6,52.2z M135.6,127.6l3.6,6.6l-11.5,19.6l-18.3-5.8
		l-18.3,5.8l-11.5-19.6l3.6-6.6L61.5,96.3L83.9,69H135l22.4,27.4L135.6,127.6z"/>
	<polygon points="122.9,104.4 137.8,101.1 145.2,91.5 128.8,93.8 	"/>
</g>
</svg>
