<svg width="100" height="100" viewBox="0 0 100 100" fill="none" xmlns="http://www.w3.org/2000/svg">
<path d="M96.5163 44.9484L96.5307 44.9342L96.1999 44.5939C94.3395 42.6938 91.6353 41.9989 88.9933 42.4385C87.9241 42.6181 86.7878 42.5992 85.6179 42.3487C82.3286 41.6444 79.6915 39.0022 79.0203 35.7501C78.7757 34.5637 78.7805 33.4104 78.9915 32.3327C79.4566 29.9551 79.0011 27.5114 77.5387 25.6254C75.9612 23.4369 73.372 22 70.4376 22C65.6237 22 61.7208 25.8476 61.7208 30.5933C61.7208 31.1983 61.8023 31.7844 61.927 32.3516V33.193C61.927 38.1655 57.837 42.1974 52.7929 42.1974L47.7968 42.344C47.6386 42.344 47.4708 42.3487 47.3029 42.3534C42.3116 42.292 38.284 38.2884 38.284 33.3537V30.5933C38.284 25.8476 34.3811 22 29.5672 22C26.6328 22 24.0436 23.4322 22.4613 25.6254C21.0037 27.5114 20.5434 29.9599 21.0085 32.3327C21.2195 33.4104 21.2291 34.5637 20.9798 35.7501C20.3085 39.0022 17.6666 41.6444 14.3822 42.3487C13.2123 42.5992 12.0759 42.6134 11.0067 42.4385C8.36474 41.9989 5.66051 42.6938 3.80015 44.5939L3.46931 44.9342L3.48371 44.9484C1.94939 46.4988 1 48.6117 1 50.9514C1 55.6971 4.90296 59.5447 9.71689 59.5447C12.9677 59.5447 15.8014 57.7863 17.2974 55.1819C17.3214 55.1393 17.3501 55.1015 17.3741 55.059C17.3837 55.0401 17.3933 55.0211 17.4029 54.9975C18.381 53.2912 18.7262 51.287 18.3091 49.3159C18.0933 48.2997 18.0646 47.2173 18.2515 46.1018C18.8701 42.4149 21.9914 39.4937 25.7553 39.04C26.6663 38.9313 27.5534 38.9596 28.3972 39.1109C28.4692 39.1251 28.5411 39.1251 28.6178 39.1345C28.6466 39.1345 28.6753 39.1392 28.7041 39.144C29.0589 39.1912 29.4089 39.2101 29.7542 39.2101L29.7062 39.2574H32.3145C36.7737 39.2574 40.48 42.4102 41.2807 46.5792V55.612C40.48 58.6702 37.9484 61.1281 34.7983 61.804C33.6283 62.0546 32.492 62.0687 31.4227 61.8939C28.7808 61.4543 26.0766 62.1491 24.2162 64.0493L23.8854 64.3896L23.8998 64.4038C22.3654 65.9541 21.4161 68.067 21.4161 70.4068C21.4161 75.1524 25.319 79 30.1329 79C33.3838 79 36.2175 77.2416 37.7134 74.6372C37.7374 74.5947 37.7662 74.5568 37.7902 74.5143C37.7998 74.4954 37.8094 74.4765 37.8189 74.4529C38.7971 72.7465 39.1423 70.7424 38.7252 68.7713C38.5094 67.755 38.4806 66.6726 38.6676 65.5571C39.0895 63.0614 40.6526 60.9201 42.7911 59.6534H57.2281C59.3618 60.9201 60.9296 63.0614 61.3516 65.5571C61.5386 66.6726 61.5098 67.755 61.294 68.7713C60.8769 70.7471 61.2221 72.7465 62.2003 74.4529C62.2098 74.4718 62.2194 74.4954 62.229 74.5143C62.253 74.5568 62.2818 74.5947 62.3058 74.6372C63.8017 77.2416 66.6354 79 69.8863 79C74.7002 79 78.6031 75.1524 78.6031 70.4068C78.6031 68.0717 77.6538 65.9541 76.1194 64.4038L76.1338 64.3896L75.803 64.0493C73.9426 62.1491 71.2384 61.4543 68.5965 61.8939C67.5272 62.0735 66.3861 62.0546 65.2209 61.804C62.0468 61.1234 59.496 58.6324 58.7193 55.5364V49.6232L58.7576 48.1012C58.7576 43.1286 62.8475 39.0967 67.8916 39.0967H68.9177C69.6897 39.229 70.4904 39.2527 71.2959 39.1392C71.3247 39.1392 71.3535 39.1345 71.3822 39.1298C71.4541 39.1203 71.526 39.1203 71.6028 39.1061C72.4466 38.9549 73.3337 38.9265 74.2447 39.0352C78.0038 39.489 81.13 42.4102 81.7485 46.097C81.9355 47.2125 81.9067 48.295 81.6909 49.3112C81.2738 51.287 81.619 53.2864 82.5972 54.9928C82.6068 55.0117 82.6163 55.0353 82.6259 55.0542C82.6499 55.0968 82.6787 55.1346 82.7026 55.1771C84.1986 57.7816 87.0323 59.5399 90.2831 59.5399C95.0971 59.5399 99 55.6923 99 50.9467C99 48.6117 98.0506 46.4941 96.5163 44.9437V44.9484Z" fill="#23C8BC"/>
</svg>
