<svg width="128" height="128" viewBox="0 0 128 128" fill="none" xmlns="http://www.w3.org/2000/svg">
<path fill-rule="evenodd" clip-rule="evenodd" d="M61.5 123C77.8108 123 93.4536 116.521 104.987 104.987C116.521 93.4536 123 77.8108 123 61.5C123 45.1892 116.521 29.5464 104.987 18.0129C93.4536 6.47944 77.8108 0 61.5 0C45.1892 0 29.5464 6.47944 18.0129 18.0129C6.47944 29.5464 0 45.1892 0 61.5C0 77.8108 6.47944 93.4536 18.0129 104.987C29.5464 116.521 45.1892 123 61.5 123Z" fill="url(#paint0_linear_7098_748)"/>
<path d="M35.9794 64.8824L61.5019 79.9939L86.9804 64.8824L61.5019 100.86L35.9794 64.8824Z" fill="white"/>
<path d="M35.9794 64.8824L61.5019 79.9939V100.86L35.9794 64.8824Z" fill="#9DCCED"/>
<path d="M61.5019 74.3711L35.9794 59.2596L61.5019 19.065L87.0244 59.2596L61.5019 74.3711Z" fill="white"/>
<path d="M61.5019 74.3711L35.9794 59.2596L61.5019 19.065V74.3711Z" fill="#9DCCED"/>
<g clip-path="url(#clip0_7098_748)">
<path d="M79.5012 85.4569V101.517C79.5012 102.502 80.0846 103.486 80.9237 103.975L95.1156 112.005C96.0333 112.494 97.1214 112.494 98.0392 112.005L112.231 103.975C113.149 103.486 113.653 102.502 113.653 101.517V85.4569C113.653 84.4725 113.07 83.488 112.231 82.999L98.0326 74.9689C97.1149 74.4799 96.0268 74.4799 95.109 74.9689L80.9171 82.999C79.9994 83.488 79.5012 84.4725 79.5012 85.4569Z" fill="#213147"/>
<path d="M99.7044 96.6015L97.6985 102.013C97.6134 102.174 97.6134 102.341 97.6985 102.502L101.206 111.844L105.211 109.547L100.367 96.6015C100.288 96.2732 99.8683 96.2732 99.7044 96.6015Z" fill="#12AAFF"/>
<path d="M103.71 87.426C103.625 87.0979 103.211 87.0979 103.041 87.426L101.035 92.8373C100.95 92.9982 100.95 93.1655 101.035 93.3264L106.712 108.653L110.717 106.356L103.71 87.426Z" fill="#12AAFF"/>
<path d="M96.5314 75.5416C96.6166 75.5416 96.6953 75.5416 96.7805 75.6252L112.139 84.3116C112.303 84.3953 112.388 84.5561 112.388 84.8007V102.173C112.388 102.334 112.303 102.585 112.139 102.662L96.7805 111.349C96.6953 111.433 96.6166 111.433 96.5314 111.433C96.4462 111.433 96.3675 111.433 96.2823 111.349L80.9236 102.662C80.7597 102.579 80.6745 102.418 80.6745 102.173V84.8007C80.6745 84.6398 80.7597 84.3888 80.9236 84.3116L96.2823 75.6252C96.361 75.5416 96.4462 75.5416 96.5314 75.5416ZM96.5314 73C95.948 73 95.4432 73.1609 94.945 73.4118L79.5863 82.0982C78.5834 82.6709 78 83.6553 78 84.8007V102.173C78 103.242 78.5834 104.303 79.5863 104.876L94.945 113.562C95.4432 113.807 95.948 113.974 96.5314 113.974C97.1148 113.974 97.6195 113.813 98.1177 113.562L113.476 104.876C114.479 104.303 115.063 103.319 115.063 102.173V84.8007C115.063 83.7325 114.479 82.6709 113.476 82.0982L98.1964 73.4118C97.6982 73.1673 97.1935 73 96.61 73H96.5314Z" fill="#9DCCED"/>
<path d="M86.4298 108.646L87.8457 104.876L90.6841 107.173L88.0162 109.631L86.4298 108.646Z" fill="#213147"/>
<path d="M95.2794 83.5717H91.3529C91.1038 83.5717 90.7695 83.7325 90.6843 83.9835L82.3396 106.433L86.3448 108.73L95.5286 84.0607C95.6137 83.8162 95.4433 83.5717 95.1943 83.5717H95.2794Z" fill="white"/>
<path d="M102.038 83.5718H98.1112C97.862 83.5718 97.5277 83.7326 97.4426 83.9836L87.931 109.547L91.9362 111.844L102.287 83.9836C102.372 83.7391 102.202 83.4946 101.953 83.4946L102.038 83.5718Z" fill="white"/>
</g>
<defs>
<linearGradient id="paint0_linear_7098_748" x1="123" y1="0" x2="1.46627e-05" y2="123" gradientUnits="userSpaceOnUse">
<stop stop-color="#214980"/>
<stop offset="1" stop-color="#151F2D"/>
</linearGradient>
<clipPath id="clip0_7098_748">
<rect width="37" height="41" fill="white" transform="translate(78 73)"/>
</clipPath>
</defs>
</svg>
