<svg width="100" height="100" viewBox="0 0 100 100" fill="none" xmlns="http://www.w3.org/2000/svg">
<rect width="100" height="100" fill="#0B0B0B"/>
<rect width="100" height="100" fill="#CCFF00"/>
<g clip-path="url(#clip0_677_20)">
<path d="M23.7582 52.6062C12.8653 49.3852 10.0689 41.3326 11.6794 36.5011L11.8428 36.5447C19.32 38.5393 27.1571 38.778 34.7418 37.242L33.0242 41.7452C30.1617 49.2504 32.2437 57.7439 38.2527 63.0744C22.7918 67.2172 16.5109 57.0165 15.7056 51.8009L23.7582 52.6062Z" fill="#0B0B0B"/>
<path d="M60.7996 55.122C60.7996 58.9823 57.6387 62.0569 52.6765 62.6035V67.1812H48.0541V62.3985C43.7716 61.442 40.9846 58.504 39.863 55.4636L45.2331 53.7897C46.1508 56.0102 48.258 57.7525 51.3849 57.7525C53.6621 57.7525 55.0896 56.6934 55.0896 55.4978C55.0896 54.5071 54.3419 53.7897 52.5405 53.2089L46.4227 51.2958C43.2958 50.3051 40.9506 48.1187 40.9846 44.9758C40.9506 41.4913 43.8396 38.5875 48.0541 37.9726V33.3607H52.6765V38.1434C56.4831 38.9974 59.2701 41.4229 60.2898 44.1217L55.0896 45.659C54.1719 43.9851 52.1327 42.7894 49.8555 42.7894C47.9182 42.7894 46.6946 43.6776 46.6946 44.7708C46.6946 45.5907 47.2724 46.1715 48.292 46.4789L54.2739 48.392C57.8426 49.5194 60.7996 51.0908 60.7996 55.122Z" fill="#0B0B0B"/>
<path d="M76.9047 52.6062C87.7976 49.3852 90.594 41.3326 88.9835 36.5011L88.82 36.5447C81.3429 38.5393 73.5057 38.778 65.9211 37.242L67.6386 41.7452C70.5011 49.2504 68.4191 57.7439 62.4102 63.0744C77.871 67.2172 84.152 57.0165 84.9572 51.8009L76.9047 52.6062Z" fill="#0B0B0B"/>
</g>
<defs>
<clipPath id="clip0_677_20">
<rect width="78.1465" height="48.8416" fill="white" transform="translate(11.2583 25.7631)"/>
</clipPath>
</defs>
</svg>
