<svg width="400" height="400" viewBox="0 0 400 400" fill="none" xmlns="http://www.w3.org/2000/svg">
<path d="M400 200C400 310.457 310.457 400 200 400C89.543 400 0 310.457 0 200C0 89.543 89.543 0 200 0C310.457 0 400 89.543 400 200Z" fill="#8759E3"/>
<path fill-rule="evenodd" clip-rule="evenodd" d="M200 368.279C292.938 368.279 368.279 292.938 368.279 200C368.279 107.062 292.938 31.7215 200 31.7215C107.062 31.7215 31.7215 107.062 31.7215 200C31.7215 292.938 107.062 368.279 200 368.279ZM200 400C310.457 400 400 310.457 400 200C400 89.543 310.457 0 200 0C89.543 0 0 89.543 0 200C0 310.457 89.543 400 200 400Z" fill="url(#paint0_linear_3065_2642)"/>
<path d="M225.918 83.5586H173.307V173.307H109.864C95.336 173.307 83.5586 185.085 83.5586 199.613C83.5586 214.141 95.336 225.918 109.864 225.918H173.307V263.056C173.307 292.112 196.862 315.667 225.918 315.667V225.918H263.056C292.112 225.918 315.667 202.364 315.667 173.307H225.918V83.5586Z" fill="white"/>
<defs>
<linearGradient id="paint0_linear_3065_2642" x1="200" y1="0" x2="200" y2="400" gradientUnits="userSpaceOnUse">
<stop stop-color="#DDC1FF"/>
<stop offset="1" stop-color="#8759E3"/>
</linearGradient>
</defs>
</svg>
