<svg width="24" height="24" viewBox="0 0 24 24" fill="none" xmlns="http://www.w3.org/2000/svg">
<path d="M24 12C24 18.6274 18.6274 24 12 24C5.37258 24 0 18.6274 0 12C0 5.37258 5.37258 0 12 0C18.6274 0 24 5.37258 24 12Z" fill="#FE2C2E"/>
<path d="M5.2401 7.54278L7.98084 11.7361H11.5316L10.7251 10.5017H13.2845L10.2294 15.1773L12.0041 17.8923L18.768 7.54278H5.2401Z" fill="white"/>
<path fill-rule="evenodd" clip-rule="evenodd" d="M20.8999 18.466L20.0913 17.8776C21.292 16.2278 22 14.1981 22 12C22 9.80193 21.292 7.77217 20.0913 6.12243L20.8999 5.534C22.2208 7.34896 23 9.58348 23 12C23 14.4165 22.2208 16.651 20.8999 18.466ZM18.466 3.10012C16.651 1.77923 14.4165 1 12 1C9.58348 1 7.34896 1.77923 5.53399 3.10012L6.12243 3.90866C7.77217 2.70801 9.80193 2 12 2C14.1981 2 16.2278 2.70801 17.8776 3.90866L18.466 3.10012ZM3.10012 5.534C1.77923 7.34896 1 9.58348 1 12C1 14.4165 1.77923 16.651 3.10012 18.466L3.90866 17.8776C2.70801 16.2278 2 14.1981 2 12C2 9.80194 2.70801 7.77218 3.90866 6.12244L3.10012 5.534ZM5.534 20.8999L6.12244 20.0913C7.77218 21.292 9.80194 22 12 22C14.1981 22 16.2278 21.292 17.8776 20.0913L18.466 20.8999C16.651 22.2208 14.4165 23 12 23C9.58348 23 7.34896 22.2208 5.534 20.8999Z" fill="white"/>
</svg>
